<svg xmlns="http://www.w3.org/2000/svg" xmlns:xlink="http://www.w3.org/1999/xlink"><defs><symbol viewBox="0 0 18 10" id="align-left"><path d="M0 5.897v-1.38h18v1.38H0zm0-4V.517h14v1.38H0zm0 8v-1.38h10v1.38H0z" /></symbol><symbol viewBox="0 0 16 15" id="andropov_heart"><path fill="#818181" d="M11.281 0c-1.338 0-2.59.606-3.424 1.62A4.434 4.434 0 004.434 0 4.439 4.439 0 000 4.434c0 1.914 1.141 4.128 3.393 6.58 1.732 1.888 3.617 3.35 4.153 3.752l.311.234.311-.234c.537-.403 2.421-1.864 4.154-3.751 2.251-2.453 3.393-4.667 3.393-6.581A4.439 4.439 0 0011.28 0zm.278 10.314C10.134 11.866 8.6 13.12 7.857 13.7c-.743-.579-2.276-1.834-3.701-3.386-2.041-2.224-3.12-4.257-3.12-5.88a3.401 3.401 0 013.398-3.398 3.4 3.4 0 012.97 1.754l.453.817.453-.817a3.4 3.4 0 012.971-1.754 3.401 3.401 0 013.397 3.398c0 1.623-1.078 3.656-3.12 5.88z" /></symbol><symbol viewBox="0 0 300 300" id="andropov_play_coub"><path d="M150 300c82.843 0 150-67.157 150-150S232.843 0 150 0 0 67.157 0 150s67.157 150 150 150z" /><path d="M195.599 132.517c-1.858-.506-4.053-1.173-8.103 2.845-1.967 1.948.044 1.747-.172 1.843-1.21.533-.675-6.531-5.222-9.376-4.219-2.637-7.593-.502-10.048 1.486-1.463 1.195-1.366 1.555-2.276-1.151-.25-.754-1.695-6.003-3.884-7.7-3.881-3.016-8.822-2.194-10.792 0-2.87 3.18-3.336 5.432-4.478 5.525-1.019.081-1.179-.84-1.263-1.34-.557-3.32-.979-14.401-.979-16.939 0-3.953 1.858-29.874 1.313-32.948-.653-3.757-1.357-6.497-5.172-7.909-3.734-1.383-7.177.975-8.49 2.963-2.005 3.028-3.343 21.429-4.006 27.817-.647 6.289-1.313 16.514-1.151 27.63.166 11.12-3.13 32.911-3.949 29.942-.826-2.96-4.772-9.4-7.734-13.108-2.961-3.704-9.556-8.829-16.636-11.494-7.09-2.671-12.355-1.483-13.178 2.37-.625 2.929 2.743 4.685 4.61 5.932 2.43 1.61 7.905 5.777 9.55 9.189 1.645 3.41 2.633 7.558 3.624 9.044.988 1.477 2.449 5.234 4.397 10.077 2.192 5.482 4.728 8.997 9.328 13.834 9.472 9.965 14.082 17.407 15.645 22.036.698 2.045 3.975 7.998 3.509 15.081v11.838h48.681s.065-16.153-.06-18.316c-.266-4.467 3.48-7.12 8.915-18.686 5.438-11.556 4.225-22.232 5.329-26.972.963-4.179 1.648-11.185 1.126-16.102-.254-2.46-.332-5.864-1.686-9.708-1.542-4.387-3.39-6.794-6.748-7.703z" fill="#fff" /></symbol><symbol viewBox="0 0 300 300" id="andropov_play_default"><path d="M150 300c82.843 0 150-67.157 150-150S232.843 0 150 0 0 67.157 0 150s67.157 150 150 150z" /><path d="M232.57 144.199c5.16 3.204 5.152 8.403 0 11.602l-118.227 73.398c-5.16 3.204-9.343.874-9.343-5.189V75.99c0-6.07 4.191-8.388 9.343-5.19L232.57 144.2z" fill="#fff" /></symbol><symbol viewBox="0 0 30 30" id="andropov_play_twitch"><path clip-rule="evenodd" d="M10 7l12 8-12 8V7z" fill-rule="evenodd" /></symbol><symbol viewBox="0 0 300 198" id="andropov_play_vimeo"><path d="M264 0H36C16.119 0 0 16.119 0 36v126c0 19.881 16.119 36 36 36h228c19.881 0 36-16.119 36-36V36c0-19.881-16.119-36-36-36z" /><path d="M198 97.5L126 138V57l72 40.5z" fill="#fff" /></symbol><symbol viewBox="0 0 300 188" id="andropov_repost"><path clip-rule="evenodd" d="M62.543 134.249c0 15.5 12.75 28.25 28.25 28.25h73.15c5.162 0 9.375 3.575 9.375 8.75 0 4.202-2.786 4.053-6.604 3.848-.884-.047-1.823-.098-2.796-.098H90.793c-25.838 0-40.75-14.9-40.75-40.75v-96.75l-31.25 31.25c-3.663 3.663-8.729 3.76-12.5 0s-3.675-6.85 0-10.5l43.75-43.75c3.65-3.675 8.837-3.675 12.5 0l41.025 41.75c3.662 3.65 3.652 8.823 0 12.5-3.733 3.758-10.925 1.838-12.775 0L62.543 37.5zm175.019-80.83c0-15.5-12.754-28.25-28.259-28.25h-73.175c-5.164 0-9.378-3.576-9.378-8.75 0-4.203 2.786-4.053 6.605-3.848.885.047 1.825.097 2.798.097h73.15c25.846 0 40.763 14.9 40.763 40.75v96.75l31.261-31.25c3.664-3.662 8.731-3.758 12.504 0 3.773 3.759 3.676 6.85 0 10.5l-43.765 43.75c-3.651 3.675-8.84 3.675-12.504 0l-41.039-41.75c-3.663-3.65-3.653-8.822 0-12.5 3.734-3.758 10.929-1.837 12.78 0l28.259 31.25z" fill-rule="evenodd" /></symbol><symbol viewBox="0 0 13 15" id="asemic_bold"><path d="M5.996 13.9H1.752c-.613 0-1.05-.137-1.312-.412-.262-.275-.393-.712-.393-1.312V1.737C.047 1.125.18.684.449.416.718.147 1.152.013 1.752.013h4.5a10.5 10.5 0 011.723.123c.487.082.922.24 1.308.474a3.43 3.43 0 011.449 1.738c.132.363.199.747.199 1.151 0 1.39-.695 2.406-2.084 3.05 1.825.581 2.737 1.712 2.737 3.391a3.82 3.82 0 01-.596 2.099 3.581 3.581 0 01-1.61 1.378c-.424.177-.91.301-1.46.374-.549.073-1.19.109-1.922.109zm-.209-6.167H2.86v4.055h3.022c1.9 0 2.851-.686 2.851-2.056 0-.7-.246-1.21-.739-1.525-.492-.316-1.228-.474-2.207-.474zM2.86 2.125v3.59h2.577c.7 0 1.242-.066 1.624-.198a1.55 1.55 0 00.876-.758c.158-.265.237-.562.237-.89 0-.702-.25-1.167-.748-1.398-.499-.23-1.26-.346-2.283-.346H2.86z" /></symbol><symbol viewBox="0 0 6 15" id="asemic_italic"><path d="M4 5.2l-1.368 7.474c-.095.518-.29.91-.585 1.175a1.468 1.468 0 01-1.01.398c-.379 0-.662-.136-.85-.407-.186-.272-.234-.66-.141-1.166L1.4 5.276c.093-.511.282-.896.567-1.155a1.43 1.43 0 01.994-.389c.38 0 .668.13.867.389.199.259.256.618.172 1.08zm-.79-2.67c-.36 0-.648-.111-.863-.332-.215-.221-.286-.534-.212-.938.067-.366.253-.668.559-.905A1.57 1.57 0 013.673 0c.334 0 .612.107.831.322.22.215.292.527.217.938-.073.398-.256.709-.55.933a1.55 1.55 0 01-.961.336z" /></symbol><symbol viewBox="0 0 15 14" id="asemic_link"><path d="M9.593 5.146a51.07 51.07 0 01-1.611 1.613 1.402 1.402 0 00-2.203-.292L2.915 9.331a1.4 1.4 0 101.98 1.98l.6-.6c.753.463 1.628.649 2.625.557l-1.634 1.634A3.65 3.65 0 111.324 7.74l2.864-2.864a3.65 3.65 0 015.405.27zM6.45 2.614l1.415-1.415a3.65 3.65 0 015.161 5.162l-2.863 2.864a3.65 3.65 0 01-5.405-.268 62.68 62.68 0 011.603-1.625 1.401 1.401 0 002.21.302l2.864-2.864a1.4 1.4 0 00-1.98-1.98l-.339.34c-.517-.311-1.55-.523-2.666-.516z" /></symbol><symbol viewBox="0 0 20 18" id="asemic_mark"><path d="M10.458 12.04l2.919 1.686-.781 1.417-.984-.03-.974 1.687H8.674l1.49-2.583-.508-.775.802-1.401zm.546-.952l3.624-6.327a1.597 1.597 0 012.182-.59 1.632 1.632 0 01.615 2.201l-3.519 6.391-2.902-1.675zm-7.73 3.467h3.465a1.123 1.123 0 110 2.247H3.273a1.123 1.123 0 110-2.247z" /></symbol><symbol viewBox="0 0 16 16" id="attach-link"><path d="M11.065 7.014a4.147 4.147 0 01.359 1.679 4.113 4.113 0 01-.602 2.13 4.111 4.111 0 01-.602.774l-.415.414-2.784 2.784A4.1 4.1 0 014.112 16a4.114 4.114 0 01-2.908-7.021L3.993 6.19a4.6 4.6 0 00-.085 1.785c.038.28.1.559.188.83l-1.532 1.533a2.176 2.176 0 00-.642 1.549c0 .585.228 1.136.642 1.549.413.414.964.642 1.549.642.586 0 1.135-.228 1.55-.642l1.529-1.53.587-.586.629-.63.454-.453c.006-.007.01-.016.018-.023.237-.243.4-.53.5-.832.091-.273.126-.557.107-.84a2.168 2.168 0 00-.626-1.403 2.168 2.168 0 00-1.405-.628c.055-.084.118-.164.192-.238l.4-.4.384-.384.554-.554a4.1 4.1 0 011.235.845c.366.366.645.787.844 1.234zm3.73-5.81a4.114 4.114 0 010 5.817L12.008 9.81c.09-.38.138-.767.135-1.154 0-.211-.02-.422-.049-.63a4.65 4.65 0 00-.189-.831l1.533-1.533a2.193 2.193 0 00-1.55-3.74c-.585 0-1.135.228-1.549.642l-1.53 1.53-.587.586-.629.63-.453.453c-.007.007-.012.016-.02.023a2.207 2.207 0 00-.607 1.67 2.17 2.17 0 00.627 1.405c.379.38.875.593 1.405.628a1.478 1.478 0 01-.192.24l-.4.398-.384.385-.554.553a4.097 4.097 0 01-1.234-.845 4.087 4.087 0 01-.845-1.234 4.139 4.139 0 01-.36-1.68A4.116 4.116 0 015.78 4.405l.415-.415 2.784-2.784A4.1 4.1 0 0111.888 0c1.052 0 2.105.402 2.908 1.205z" fill-rule="evenodd" /></symbol><symbol viewBox="0 0 12 14" id="attach-video"><path d="M11.57 6.246L1 0a1 1 0 00-1 1v12a1 1 0 001 1l10.57-6.246a.876.876 0 000-1.508zM2 11.086V2.914L8.915 7 2 11.086z" /></symbol><symbol viewBox="0 0 10 12" id="audio_download"><path d="M9.882 4.235H7.06V0H2.824v4.235H0l4.941 4.941 4.941-4.94zM0 10.588V12h9.882v-1.412H0z" /></symbol><symbol viewBox="0 0 13.3 15.3" id="audio_fwd"><path d="M6.2 0l2.6 2.2V0l2.6 2.7v.2L8.7 5.6V3.1L6.1 5.4v-2c-2.7.2-4.7 2.4-4.7 5.2 0 2.9 2.3 5.2 5.2 5.2 2.8 0 5.3-2.6 5.3-5.2l.1-.1h1.2l.1.1c0 3.6-3 6.6-6.7 6.6S0 12.3 0 8.6C0 5 2.7 2.1 6.2 2V0z" /></symbol><symbol viewBox="0 0 12 12" id="audio_listens"><path fill-rule="evenodd" d="M1.564 5.952A3.12 3.12 0 013.15 5.52c.433 0 .782.352.782.788v4.775a.784.784 0 01-.782.788C1.413 11.87 0 10.446 0 8.694V6.05a6.04 6.04 0 011.757-4.278A5.94 5.94 0 016 0a5.94 5.94 0 014.243 1.772A6.041 6.041 0 0112 6.179v2.644C12 10.575 10.587 12 8.85 12a.784.784 0 01-.782-.788V6.438c0-.437.35-.789.782-.789.57 0 1.114.154 1.587.433 0-2.498-1.991-4.506-4.437-4.506-2.413 0-4.384 1.955-4.436 4.376z" /></symbol><symbol viewBox="0 0 18 14" id="audio_mute"><path d="M9.467 13.914a.904.904 0 01-.964-.122l-4.957-4.09H.906A.904.904 0 010 8.799V5.2c0-.498.406-.903.907-.903h2.64L8.503.208A.908.908 0 019.99.903v12.194c0 .35-.204.669-.522.817zM16.886 3.45l1.072 1.071a.145.145 0 010 .204l-2.084 2.081a.145.145 0 000 .204l2.084 2.081a.145.145 0 010 .204l-1.072 1.071a.145.145 0 01-.205 0l-2.083-2.08a.145.145 0 00-.204 0l-2.084 2.08a.145.145 0 01-.204 0l-1.073-1.07a.145.145 0 010-.205l2.084-2.08a.145.145 0 000-.205l-2.084-2.08a.145.145 0 010-.205l1.073-1.07a.145.145 0 01.204 0l2.084 2.08a.145.145 0 00.204 0l2.084-2.08a.145.145 0 01.204 0z" /></symbol><symbol viewBox="0 0 14 15" id="audio_pause"><path d="M0 0h6.032v15H0V0zm7.997 0H14v15H7.997V0z" /></symbol><symbol viewBox="0 0 15 19" id="audio_play"><path fill-rule="evenodd" clip-rule="evenodd" d="M1.55.758A1 1 0 000 1.593v16.376a1 1 0 001.55.835l12.426-8.188a1 1 0 000-1.67L1.55.758z" /></symbol><symbol viewBox="0 0 13.3 15.3" id="audio_rwd"><path d="M7.1 2c3.6.2 6.2 3 6.2 6.6 0 3.6-3 6.6-6.7 6.6S0 12.3 0 8.6l.2-.2h1.2l.2.1c0 2.6 2.5 5.2 5.3 5.2 2.9 0 5.2-2.3 5.2-5.2 0-2.8-2.1-5-4.8-5.2v2L4.6 3.1v2.4L1.9 2.9v-.2L4.5 0v2.2L7.1 0v2z" /></symbol><symbol viewBox="0 0 18 14" id="audio_volume"><path d="M9.455 13.914a.902.902 0 01-.963-.122l-4.95-4.09H.906A.904.904 0 010 8.799V5.2c0-.498.405-.903.906-.903h2.636l4.95-4.09a.905.905 0 011.484.695v12.194c0 .35-.203.669-.52.817zm2.65-3.277a.827.827 0 01-.603-.2l-.103-.091a.629.629 0 01-.075-.894c.58-.693.886-1.514.886-2.375 0-.926-.348-1.795-1.005-2.513a.63.63 0 01.053-.917l.103-.092a.813.813 0 01.587-.2c.218.01.422.1.56.25.912.99 1.394 2.19 1.394 3.472 0 1.194-.426 2.33-1.232 3.286a.805.805 0 01-.565.274zm3.552 2.12a.815.815 0 01-.592.243.827.827 0 01-.547-.2l-.102-.09a.63.63 0 01-.045-.928c1.249-1.315 1.937-2.986 1.937-4.705 0-1.788-.737-3.509-2.074-4.846a.63.63 0 01.032-.939l.101-.09a.807.807 0 01.57-.202.819.819 0 01.557.23C17.11 2.842 18 4.92 18 7.077c0 2.076-.832 4.094-2.343 5.68z" /></symbol><symbol viewBox="0 0 16 17" id="bell"><path fill-rule="evenodd" d="M15.49 13.802l.055.047v.066c0 .745-.581 1.078-1.3 1.078H9.468c0 .943-.786 2.007-1.695 2.007-.91 0-1.739-1.064-1.739-2.007H1.336C.618 14.993 0 14.66 0 13.915v-.066l.055-.047C2.009 12.179 3 9.585 3 6.085c0-1.783 1.318-3.887 3.782-4.359a.667.667 0 01-.055-.264c0-.528.491-.99 1.046-.99.554 0 1.045.462 1.045.99a.667.667 0 01-.054.264c2.463.472 3.781 2.576 3.781 4.359 0 3.5.991 6.094 2.946 7.717zM7.774 3.113c-2.41 0-3.41 1.88-3.41 2.888 0 3.236-.718 5.683-2.2 7.47h11.219c-1.482-1.787-2.2-4.234-2.2-7.47 0-1.009-1-2.888-3.41-2.888" /></symbol><symbol viewBox="0 257.75 20 20" id="bell_solid"><path d="M5.466 259.977l-1.296-1.295a9.761 9.761 0 00-3.886 7.217h1.85c.186-2.5 1.388-4.628 3.332-5.923zm12.4 5.922h1.85c-.185-2.962-1.573-5.552-3.794-7.218l-1.295 1.295c1.85 1.295 3.053 3.424 3.238 5.922zm-1.85.462c0-2.868-1.944-5.182-4.628-5.83v-.647c0-.74-.647-1.388-1.388-1.388-.74 0-1.388.648-1.388 1.388v.648c-2.684.647-4.627 2.96-4.627 5.83v5.088l-1.85 1.852v.926h15.73v-.926l-1.85-1.85v-5.09zM10 277.004h.37c.648-.094 1.11-.556 1.296-1.11.093-.186.185-.464.185-.74h-3.7c0 1.016.832 1.85 1.85 1.85z" /></symbol><symbol viewBox="0 0 300 64" id="cmtt"><path d="M240.343 0v15.714h20.08v47.532h19.498V15.714H300V0zm-78.294 15.714h20.08v47.532h19.497V15.714h20.08V0H162.05zm-49.548 10.67h-.679L93.878 0H77v63.246h16.102v-37.54h1.261l12.415 18.43h10.767l12.512-18.43h1.164v37.54h16.199V0h-16.878zM57.717 0h-19.11L22.312 24.542h-5.627V0H0v63.246h16.684V40.062h7.76l17.073 23.184h19.886l-24.25-33.272z" /></symbol><symbol viewBox="0 0 20 20" id="comments_reply_to"><path d="M19 16.685S16.775 6.953 8 6.953V2.97L1 9.54l7 6.69v-4.357c4.763 0 8.516.42 11 4.81z" /></symbol><symbol fill="none" viewBox="0 0 18 18" id="content-filters"><path fill-rule="evenodd" clip-rule="evenodd" d="M4.493 3.328H.632A.64.64 0 010 2.689c0-.349.283-.635.632-.635h3.86C4.78.877 5.827 0 7.08 0a2.67 2.67 0 012.586 2.054h7.703c.35 0 .632.282.632.635a.635.635 0 01-.632.639H9.665C9.378 4.505 8.33 5.382 7.079 5.382a2.67 2.67 0 01-2.586-2.054zm3.986-.64a1.41 1.41 0 00-1.4-1.415c-.76 0-1.381.62-1.4 1.378v.067a1.41 1.41 0 001.4 1.385c.772 0 1.4-.635 1.4-1.415zM.632 9.5h8.045a2.67 2.67 0 002.586 2.054c1.252 0 2.3-.877 2.586-2.054h3.52A.635.635 0 0018 8.86a.632.632 0 00-.632-.635H13.85a2.67 2.67 0 00-2.586-2.054c-1.253 0-2.3.876-2.586 2.054H.632a.638.638 0 000 1.274zm12.03-.632a1.41 1.41 0 00-1.4-1.415A1.41 1.41 0 009.86 8.868c0 .78.631 1.415 1.403 1.415.771 0 1.4-.635 1.4-1.415zM.632 15.68h3.86a2.67 2.67 0 002.587 2.054c1.252 0 2.3-.877 2.586-2.054h7.703a.635.635 0 00.632-.636.635.635 0 00-.632-.638H9.665a2.67 2.67 0 00-2.586-2.054c-1.253 0-2.3.876-2.586 2.054H.632a.635.635 0 00-.632.638.64.64 0 00.632.636zm7.847-.64a1.41 1.41 0 00-1.4-1.415c-.76 0-1.38.617-1.4 1.378v.067a1.41 1.41 0 001.4 1.385c.772 0 1.4-.635 1.4-1.415z" fill="#818181" /></symbol><symbol viewBox="0 0 8 8" id="enter"><path d="M7.158.4v4.35H1.6l1.516-1.515-.59-.59L0 5.173l2.526 2.526.59-.59L1.6 5.594H8V.4h-.842z" /></symbol><symbol viewBox="0 0 39 28" id="entry_quote"><path d="M16.375.094V4.78c-2.448 0-4.727.788-6.836 2.364-2.11 1.575-3.164 3.457-3.164 5.644 0 1.302.52 1.953 1.563 1.953.234 0 .703-.091 1.406-.273.729-.157 1.315-.235 1.758-.235 1.432 0 2.78.58 4.043 1.739 1.263 1.159 1.894 2.754 1.894 4.785 0 1.979-.651 3.678-1.953 5.097-1.302 1.42-3.086 2.13-5.352 2.13-2.708 0-4.895-1.023-6.562-3.067-1.667-2.044-2.5-4.89-2.5-8.535 0-5.026 1.53-8.965 4.59-11.817C8.322 1.715 12.026.224 16.375.094zm21.445 0V4.78c-2.317 0-4.563.775-6.738 2.324-2.174 1.55-3.262 3.444-3.262 5.684 0 1.302.521 1.953 1.563 1.953.234 0 .703-.091 1.406-.273.73-.157 1.315-.235 1.758-.235 1.51 0 2.877.6 4.101 1.797 1.224 1.198 1.836 2.774 1.836 4.727 0 1.979-.65 3.678-1.953 5.097-1.302 1.42-3.086 2.13-5.351 2.13-2.709 0-4.896-1.023-6.563-3.067-1.666-2.044-2.5-4.89-2.5-8.535 0-5.026 1.53-8.965 4.59-11.817C29.767 1.715 33.471.224 37.82.094z" fill="#9B9B9B" fill-rule="evenodd" opacity=".418" /></symbol><symbol viewBox="0 0 12 12" id="external_link"><path d="M7.3.8c0-.4.3-.7.7-.7h3.8v3.8c0 .4-.3.7-.7.7-.4 0-.7-.3-.7-.7V2.4L6.6 6.2c-.1.2-.3.2-.4.2-.2 0-.4 0-.5-.2-.2-.1-.2-.3-.2-.4 0-.2.1-.4.2-.5l3.8-3.8H8c-.4 0-.7-.3-.7-.7zm3.9 5.3c-.4 0-.7.3-.7.7v3.7h-9v-9h3.6c.4 0 .7-.3.7-.7S5.5.1 5.1.1H1.5C.7.1.1.7.1 1.5v9.1c0 .8.6 1.4 1.4 1.4h9.1c.8 0 1.4-.6 1.4-1.4V6.8c-.1-.4-.4-.7-.8-.7z" /></symbol><symbol viewBox="0 0 16 19" id="favorite_marker"><path d="M2.2 1.7v14.36c4.265-3.004 5.426-3.776 5.8-3.776.374 0 1.535.772 5.8 3.776V1.7H2.2zm5.684 12.151c-.283.18-.693.453-1.23.818a371.56 371.56 0 00-4.75 3.314L.8 18.762V1.6A1.3 1.3 0 012.1.3h11.8a1.3 1.3 0 011.3 1.3v17.162l-1.104-.78a376.283 376.283 0 00-4.75-3.313A51.376 51.376 0 008 13.778l-.116.073z" /></symbol><symbol viewBox="0 0 16 19" id="favorite_marker_filled"><path d="M7.884 13.851c-.283.18-.693.453-1.23.818a371.56 371.56 0 00-4.75 3.314L.8 18.762V1.6A1.3 1.3 0 012.1.3h11.8a1.3 1.3 0 011.3 1.3v17.162l-1.104-.78a376.283 376.283 0 00-4.75-3.313A51.376 51.376 0 008 13.778l-.116.073z" /></symbol><symbol viewBox="0 0 16 18" id="icon-googleplay"><path fill-rule="evenodd" d="M8.989 8.17L1.215.06a1.638 1.638 0 011.27.163l9.09 5.248L8.988 8.17zM.33.661L8.26 8.93.288 17.245A1.647 1.647 0 010 16.308V1.658c0-.37.118-.715.331-.996zm8.658 9.03l2.65 2.765-9.154 5.286a1.63 1.63 0 01-1.348.139l7.852-8.19zm6.183-2.143c.518.3.828.836.828 1.435a1.64 1.64 0 01-.828 1.434l-2.593 1.497L9.72 8.93l2.795-2.916 2.658 1.534z" /></symbol><symbol viewBox="0 0 21 19" id="icon-messenger"><path fill-rule="evenodd" clip-rule="evenodd" d="M2.125.2C1.6.2 1.106.378.742.742.378 1.106.2 1.6.2 2.125V18.67l5.751-3.79H18.67c.526 0 1.02-.179 1.383-.543.364-.364.543-.858.543-1.383V2.125c0-.525-.179-1.019-.543-1.383C19.688.378 19.195.2 18.67.2H2.125zm-.481 1.925c0-.197.062-.305.12-.362.056-.057.164-.12.361-.12H18.67c.197 0 .305.063.362.12.057.057.12.165.12.362v10.83c0 .196-.063.304-.12.361-.057.057-.165.12-.362.12H5.52l-3.875 2.553V2.125zm4.241 4.211a1.354 1.354 0 100 2.708 1.354 1.354 0 000-2.708zM9.044 7.69a1.354 1.354 0 112.707 0 1.354 1.354 0 01-2.707 0zm5.865-1.354a1.354 1.354 0 100 2.708 1.354 1.354 0 000-2.708z" /></symbol><symbol viewBox="0 0 12 12" id="image-backgrounded"><path d="M11.85 6.883a.812.812 0 00.149-.429c.04-.853-.957-2.45-2.48-3.973C8.012.974 6.469 0 5.582 0c-.295.004-.47.12-.566.216l-.8.99C2.72 1.273.601 2.33.601 3.9c0 .419.15.79.445 1.106.082.088.179.17.283.247l.256.167c.78.452 1.827.58 2.315.58.824 0 1.423-.022 2.207-.32a.305.305 0 01.386.175.298.298 0 01-.174.387c-.877.332-1.556.358-2.419.358-.862 0-2.091-.232-2.954-.882a.3.3 0 00-.413.051l-.343.426a.685.685 0 00-.19.469c-.034.724.77 2.016 2.045 3.291C3.289 11.197 4.563 12 5.29 12h.018c.258-.005.413-.108.474-.171l5.905-4.766c.002-.001.147-.143.162-.18zM1.483 4.593a.979.979 0 01-.281-.694c0-.991 1.313-1.778 2.47-2.02l-2.19 2.713zm6.648-.724c-1.026-1.025-1.61-1.883-1.9-2.436.579.302 1.453.91 2.44 1.896 1.02 1.021 1.603 1.881 1.892 2.436-.576-.302-1.447-.91-2.432-1.896z" /></symbol><symbol viewBox="0 0 14 12" id="image-bordered"><path d="M1.584.717H.373l.793.792.792.793h10.116l.793-.793.792-.792H1.585zM1.585 9.358V2.675l-.793-.792L0 1.09v9.852l.792-.792.793-.792zM12.042 9.698H1.992l-.793.793-.792.792H13.627l-.793-.792-.792-.793zM12.415 2.708v6.617l.793.792.792.792V1.124l-.793.792-.792.792z" /></symbol><symbol viewBox="0 0 297 206" id="list-ordered-icon"><path d="M40.736 76.714H23.053V20.422L5.684 25.497V12.104L39.114.542h1.622zm52.234 36.207V83.365H297v29.556zm0-81.28V2.083H297V31.64zm0 162.561v-29.557H297v29.557zM1.656 205.286v-11.51l24.484-25.739c6.034-6.871 9.05-12.329 9.05-16.375 0-3.279-.714-5.772-2.144-7.481-1.43-1.709-3.506-2.564-6.226-2.564-2.686 0-4.865 1.143-6.54 3.427-1.674 2.284-2.51 5.136-2.51 8.554H.086c0-4.674 1.168-8.99 3.505-12.949 2.337-3.958 5.58-7.053 9.73-9.286 4.151-2.232 8.79-3.348 13.917-3.348 8.23 0 14.57 1.901 19.016 5.703 4.447 3.801 6.67 9.26 6.67 16.374 0 3-.557 5.921-1.674 8.763-1.116 2.843-2.85 5.825-5.205 8.946-2.354 3.122-6.147 7.298-11.379 12.53l-9.835 11.353h29.977v13.602z" /></symbol><symbol viewBox="0 0 14 10" id="list-unordered-icon"><path d="M1.234 3.793c.67 0 1.235.535 1.235 1.207s-.547 1.207-1.235 1.207C.547 6.207 0 5.672 0 5s.547-1.207 1.234-1.207zM4.48 5.69V4.31H14v1.38H4.479zM1.234 0c.67 0 1.235.534 1.235 1.207 0 .672-.547 1.207-1.235 1.207C.547 2.414 0 1.879 0 1.207 0 .534.547 0 1.234 0zM4.48 1.897V.517H14v1.38H4.479zm-3.245 5.69c.67 0 1.235.534 1.235 1.206 0 .673-.547 1.207-1.235 1.207C.547 10 0 9.466 0 8.793c0-.672.547-1.207 1.234-1.207zM4.48 9.482v-1.38H14v1.38H4.479z" /></symbol><symbol viewBox="0 0 18 18" id="magic-wand"><path d="M13.19 5.425c.157 0 .314-.06.434-.18l1.518-1.518a.614.614 0 10-.869-.869l-1.518 1.518a.614.614 0 00.434 1.049z" /><path d="M13.19 5.425c.157 0 .314-.06.434-.18l1.518-1.518a.614.614 0 10-.869-.869l-1.518 1.518a.614.614 0 00.434 1.049z" fill-opacity=".2" /><path d="M14.144 10.396a.614.614 0 00-.868.869l1.518 1.518a.613.613 0 00.868 0 .614.614 0 000-.869l-1.518-1.518z" /><path d="M14.144 10.396a.614.614 0 00-.868.869l1.518 1.518a.613.613 0 00.868 0 .614.614 0 000-.869l-1.518-1.518z" fill-opacity=".2" /><path d="M17.386 7.23H15.24a.614.614 0 100 1.23l2.147-.001a.614.614 0 000-1.229z" /><path d="M17.386 7.23H15.24a.614.614 0 100 1.23l2.147-.001a.614.614 0 000-1.229z" fill-opacity=".2" /><path d="M6.737 4.726a.612.612 0 00.868 0 .614.614 0 000-.87L6.088 2.34a.614.614 0 00-.869.869l1.518 1.518z" /><path d="M6.737 4.726a.612.612 0 00.868 0 .614.614 0 000-.87L6.088 2.34a.614.614 0 00-.869.869l1.518 1.518z" fill-opacity=".2" /><path d="M10.155 3.375c.34 0 .614-.275.615-.614V.614a.614.614 0 10-1.229 0v2.147c0 .34.275.614.614.614z" /><path d="M10.155 3.375c.34 0 .614-.275.615-.614V.614a.614.614 0 10-1.229 0v2.147c0 .34.275.614.614.614z" fill-opacity=".2" /><path d="M12.97 7.19l-2.158-2.158a.614.614 0 00-.868 0L7.786 7.189l-.001.002L.18 14.794a.614.614 0 000 .87l2.157 2.157a.612.612 0 00.869 0l7.603-7.604c.001 0 .002 0 .002-.002l1.77-1.769.387-.388a.614.614 0 000-.869zm-1.304.434l-1.288 1.288-1.289-1.288 1.289-1.289 1.288 1.289zm-8.893 8.893L1.484 15.23 8.22 8.493 9.51 9.78l-6.737 6.736z" /><path d="M12.97 7.19l-2.158-2.158a.614.614 0 00-.868 0L7.786 7.189l-.001.002L.18 14.794a.614.614 0 000 .87l2.157 2.157a.612.612 0 00.869 0l7.603-7.604c.001 0 .002 0 .002-.002l1.77-1.769.387-.388a.614.614 0 000-.869zm-1.304.434l-1.288 1.288-1.289-1.288 1.289-1.289 1.288 1.289zm-8.893 8.893L1.484 15.23 8.22 8.493 9.51 9.78l-6.737 6.736z" fill-opacity=".2" /></symbol><symbol viewBox="0 0 168 288" id="media-arrow-left"><path d="M2.88 138.364L137.4 3.88c1.926-1.92 4.14-2.886 6.642-2.886s4.716.96 6.642 2.886l14.43 14.43c1.926 1.92 2.886 4.134 2.886 6.636 0 2.508-.96 4.716-2.886 6.642L51.66 145l113.454 113.418c1.926 1.92 2.886 4.14 2.886 6.63 0 2.508-.96 4.722-2.886 6.642l-14.43 14.424c-1.926 1.926-4.14 2.886-6.642 2.886s-4.716-.96-6.642-2.88L2.88 151.642c-1.92-1.92-2.88-4.14-2.88-6.636 0-2.502.96-4.716 2.88-6.642z" /></symbol><symbol viewBox="0 0 22 22" id="media-zoom"><path fill-rule="evenodd" d="M7.834 5.055v2.757H5.076V9.65h2.758v2.757h1.838V9.65h2.757V7.812H9.672V5.055H7.834zM8.753 0C3.938 0 .022 3.917.022 8.731c0 4.815 3.916 8.731 8.73 8.731a8.685 8.685 0 005.485-1.947l6.463 6.463 1.3-1.3-6.463-6.462a8.685 8.685 0 001.947-5.485C17.484 3.917 13.567 0 8.753 0zm0 15.624A6.9 6.9 0 011.86 8.731a6.9 6.9 0 016.893-6.893 6.9 6.9 0 016.893 6.893 6.86 6.86 0 01-1.876 4.712l-.306.306a6.86 6.86 0 01-4.711 1.875z" /></symbol><symbol viewBox="0 0 88 79" id="notify_warning"><path d="M44 .362A6.859 6.859 0 0038.031 3.8L.938 68.018a6.85 6.85 0 000 6.875c1.234 2.134 3.504 3.472 5.968 3.47h74.188c2.464 0 4.734-1.336 5.969-3.47a6.85 6.85 0 000-6.875L49.968 3.8A6.859 6.859 0 0044 .362zm0 4c.956 0 2.024.61 2.5 1.438l37.125 64.218c.477.826.477 2.05 0 2.875-.477.825-1.576 1.47-2.531 1.47H6.906c-.955 0-2.054-.645-2.531-1.47-.477-.824-.477-2.05 0-2.875L41.5 5.8c.476-.828 1.544-1.438 2.5-1.438zm-.219 14.969A2 2 0 0042 21.362v27a2 2 0 104 0v-27a2 2 0 00-2.031-2.031 2 2 0 00-.188 0zM44 55.362c-3.842 0-7 3.158-7 7s3.158 7 7 7 7-3.158 7-7-3.158-7-7-7zm0 4c1.68 0 3 1.32 3 3s-1.32 3-3 3-3-1.32-3-3 1.32-3 3-3z" /></symbol><symbol viewBox="0 0 610 178" id="preview-aside"><path d="M1 168h488a1 1 0 011 1v8a1 1 0 01-1 1H1a1 1 0 01-1-1v-8a1 1 0 011-1zM1 0h538a1 1 0 011 1v8a1 1 0 01-1 1H1a1 1 0 01-1-1V1a1 1 0 011-1zm0 16h588a1 1 0 011 1v8a1 1 0 01-1 1H1a1 1 0 01-1-1v-8a1 1 0 011-1zm0 22h488a1 1 0 011 1v8a1 1 0 01-1 1H1a1 1 0 01-1-1v-8a1 1 0 011-1zm0 16h458a1 1 0 011 1v8a1 1 0 01-1 1H1a1 1 0 01-1-1v-8a1 1 0 011-1zm0 22h528a1 1 0 011 1v8a1 1 0 01-1 1H1a1 1 0 01-1-1v-8a1 1 0 011-1zm0 16h608a1 1 0 011 1v8a1 1 0 01-1 1H1a1 1 0 01-1-1v-8a1 1 0 011-1zm0 22h468a1 1 0 011 1v8a1 1 0 01-1 1H1a1 1 0 01-1-1v-8a1 1 0 011-1zm0 16h478a1 1 0 011 1v8a1 1 0 01-1 1H1a1 1 0 01-1-1v-8a1 1 0 011-1zm0 22h528a1 1 0 011 1v8a1 1 0 01-1 1H1a1 1 0 01-1-1v-8a1 1 0 011-1z" fill="#F0F0F0" fill-rule="evenodd" /></symbol><symbol viewBox="0 0 532 155" id="preview-list"><path d="M1 145h500a1 1 0 011 1v8a1 1 0 01-1 1H1a1 1 0 01-1-1v-8a1 1 0 011-1zM1 30h470a1 1 0 011 1v14a1 1 0 01-1 1H1a1 1 0 01-1-1V31a1 1 0 011-1zm0 24h390a1 1 0 011 1v14a1 1 0 01-1 1H1a1 1 0 01-1-1V55a1 1 0 011-1zM23 5h50a1 1 0 011 1v5a1 1 0 01-1 1H23a1 1 0 01-1-1V6a1 1 0 011-1zm59 0h150a1 1 0 011 1v5a1 1 0 01-1 1H82a1 1 0 01-1-1V6a1 1 0 011-1zM1 0h14a1 1 0 011 1v14a1 1 0 01-1 1H1a1 1 0 01-1-1V1a1 1 0 011-1zm0 85h530a1 1 0 011 1v8a1 1 0 01-1 1H1a1 1 0 01-1-1v-8a1 1 0 011-1zm0 20h470a1 1 0 011 1v8a1 1 0 01-1 1H1a1 1 0 01-1-1v-8a1 1 0 011-1zm0 20h500a1 1 0 011 1v8a1 1 0 01-1 1H1a1 1 0 01-1-1v-8a1 1 0 011-1z" fill="#F0F0F0" fill-rule="evenodd" /></symbol><symbol viewBox="0 0 14 9" id="quiz-results"><path d="M.5 0h4a.5.5 0 010 1h-4a.5.5 0 110-1zm0 8h9a.5.5 0 010 1h-9a.5.5 0 010-1zm0-4h13a.5.5 0 110 1H.5a.5.5 0 010-1z" /></symbol><symbol viewBox="0 0 18 10" id="quote-center"><path d="M0 5.69V4.31h18v1.38H0zm2-3.793V.517h14v1.38H2zm2 7.586v-1.38h10v1.38H4z" fill-rule="evenodd" /></symbol><symbol viewBox="0 0 300 248" id="quote-left"><path d="M127.059 47.647C127.059 21.375 105.684 0 79.412 0 53.139 0 31.765 21.375 31.765 47.647s21.374 43.11 47.647 43.11c26.272 0 47.647-16.837 47.647-43.11zm31.765 127.765c0-18.412-7.149-35.81-20.13-48.99-12.79-12.987-28.937-12.982-46.864-12.977H66.993c-17.926-.005-34.073-.01-46.863 12.977C7.149 139.602 0 157 0 175.412a5.294 5.294 0 005.294 5.294H153.53a5.295 5.295 0 005.295-5.294zm35.294-28.759v24.34H300v-24.34zm-35.294-66.937v24.34H300v-24.34zM52.941 213.59v24.341H300V213.59z" /></symbol><symbol viewBox="0 0 300 250" id="quote-right"><path d="M150 71.839v22.988h150V71.84zM66.667 8.62V31.61H300V8.62zM150 135.057v22.989h150v-22.989zm-30-23.39c0-24.813-20.187-45-45-45s-45 20.187-45 45 20.187 40.714 45 40.714 45-15.901 45-40.714zm30 120.666c0-17.389-6.752-33.82-19.011-46.268-12.08-12.265-27.329-12.261-44.26-12.256l-1.015.001H64.286l-1.015-.001c-16.93-.005-32.18-.009-44.26 12.256C6.751 198.513 0 214.944 0 232.333a5 5 0 005 5h140a5 5 0 005-5z" /></symbol><symbol fill="none" viewBox="0 0 19 18" id="recent"><path fill-rule="evenodd" clip-rule="evenodd" d="M9.65 1.553a7.447 7.447 0 100 14.894 7.447 7.447 0 000-14.894zM.65 9a9 9 0 1118 0 9 9 0 01-18 0z" fill="#000" /><path fill-rule="evenodd" clip-rule="evenodd" d="M9.65 4.025c.429 0 .777.348.777.777v3.776l3.423 2.215a.777.777 0 11-.844 1.304L9.228 9.652A.777.777 0 018.873 9V4.802c0-.429.348-.777.777-.777z" fill="#000" /></symbol><symbol viewBox="0 0 16 18" id="search"><path fill-rule="evenodd" d="M15.757 15.545l-3.945-4.225a6.993 6.993 0 001.57-4.43c0-3.799-3.001-6.89-6.69-6.89C3.001 0 0 3.091 0 6.89c0 3.8 3.002 6.891 6.691 6.891 1.385 0 2.705-.43 3.834-1.247l3.974 4.257a.854.854 0 001.234.025.919.919 0 00.024-1.271zM6.69 1.798c2.727 0 4.946 2.284 4.946 5.093 0 2.808-2.219 5.093-4.946 5.093S1.746 9.699 1.746 6.89c0-2.809 2.218-5.093 4.945-5.093z" /></symbol><symbol viewBox="0 0 20 20" id="signin"><path d="M.25 10C.25 4.62 4.61.25 10 .25c5.38 0 9.75 4.37 9.75 9.75s-4.37 9.75-9.75 9.75c-2.29 0-4.39-.79-6.05-2.11a9.81 9.81 0 01-1.24-1.17A9.71 9.71 0 01.25 10zM10 18.25c2.14 0 4.1-.82 5.56-2.16-1.05-2.53-3.2-4.34-5.56-4.34-2.36 0-4.51 1.81-5.56 4.34A8.21 8.21 0 0010 18.25zM12.25 8c0-1.24-1.01-2.25-2.25-2.25S7.75 6.76 7.75 8s1.01 2.25 2.25 2.25S12.25 9.24 12.25 8zm-4.77 2.78A3.751 3.751 0 0110 4.25a3.751 3.751 0 012.52 6.53c1.74.75 3.2 2.23 4.14 4.09 1-1.37 1.59-3.05 1.59-4.87 0-4.56-3.69-8.25-8.25-8.25-4.56 0-8.25 3.69-8.25 8.25 0 1.82.59 3.51 1.59 4.87.94-1.86 2.4-3.34 4.14-4.09z" /></symbol><symbol fill="none" viewBox="0 0 30 32" id="site_logo"><path d="M0 13.442a3 3 0 011.126-2.343l12-9.6a3 3 0 013.748 0l12 9.6A3 3 0 0130 13.442V29a3 3 0 01-3 3H3a3 3 0 01-3-3V13.442z" fill="#000" /><rect x="9" y="15" width="12" height="10" rx="1" fill="#EEA502" /><path d="M17 15h3a1 1 0 011 1v8a1 1 0 01-1 1h-5l2-10z" fill="#C78C02" /></symbol><symbol viewBox="0 0 24 25" id="site_logo_orig"><path fill="#e8a427" class="st0" d="M0 19h8.5v6H0v-6z" /><path class="st1" d="M0 7h8.5v18l6.5-6V7h9V0H0v7z" /><path fill="rgba(0,0,0,0.15)" class="st2" d="M7.5 19h1v6l-1-6z" /></symbol><symbol viewBox="0 0 15 13" id="tweet-media"><path d="M13.611 12.859H1.39c-.689 0-1.25-.571-1.25-1.272V1.413C.139.713.7.141 1.389.141H13.61c.689 0 1.25.571 1.25 1.272v10.174c0 .7-.561 1.272-1.25 1.272zm-3.489-6.85c.178.09.295.276.295.491a.556.556 0 01-.3.497L6.51 9.128a.528.528 0 01-.261.074.595.595 0 01-.294-.09.538.538 0 01-.262-.475V4.363c0-.197.095-.373.256-.474a.62.62 0 01.278-.09.65.65 0 01.278.067l3.616 2.142zm-8.594 5.437h11.944V1.554H1.528v9.892z" /></symbol><symbol viewBox="0 0 12 15" id="ui_android"><path fill-rule="evenodd" clip-rule="evenodd" d="M7.935 1.225l.654-1.01a.139.139 0 10-.233-.151l-.678 1.044A4.422 4.422 0 006 .783c-.6 0-1.168.117-1.678.325L3.645.064a.14.14 0 00-.193-.041.139.139 0 00-.04.192l.654 1.01c-1.18.578-1.977 1.669-1.977 2.92 0 .076.005.152.012.227h7.8c.006-.075.01-.15.01-.227 0-1.251-.796-2.342-1.976-2.92zM4.192 3.033a.375.375 0 11-.001-.75.375.375 0 01.001.75zm3.616 0a.375.375 0 11-.002-.75.375.375 0 01.002.75zM.838 4.586h.037c.461 0 .838.378.839.839v3.65c0 .462-.377.84-.839.84H.84A.84.84 0 010 9.075v-3.65c0-.461.377-.84.839-.84zm2.048 6.668a.772.772 0 01-.77-.77V4.72h7.768v5.765c0 .424-.346.77-.77.77H8.29v1.972c0 .462-.377.84-.84.84h-.035a.842.842 0 01-.84-.84v-1.972h-1.15v1.972c0 .462-.378.84-.84.84h-.037a.841.841 0 01-.838-.84v-1.972h-.824zm8.239-6.668h.035c.462 0 .84.378.84.839v3.65a.84.84 0 01-.84.84h-.035a.842.842 0 01-.84-.84v-3.65c0-.461.378-.84.84-.84z" /></symbol><symbol viewBox="0 0 12 15" id="ui_apple"><path d="M10.022 7.83c-.018-1.866 1.522-2.761 1.591-2.805-.865-1.267-2.214-1.44-2.694-1.46-1.148-.117-2.24.675-2.822.675-.581 0-1.48-.659-2.432-.641-1.25.018-2.404.727-3.048 1.847-1.3 2.255-.333 5.596.934 7.425.619.896 1.357 1.901 2.326 1.865.933-.037 1.286-.604 2.414-.604 1.128 0 1.446.604 2.433.586 1.004-.019 1.64-.913 2.255-1.81.711-1.04 1.004-2.045 1.021-2.096-.022-.01-1.958-.752-1.978-2.982zM8.167 2.353C8.68 1.73 9.028.863 8.934 0c-.741.03-1.64.493-2.17 1.116-.478.552-.895 1.434-.783 2.28.827.065 1.67-.42 2.186-1.043z" /></symbol><symbol viewBox="0 0 24 18" id="ui_archive"><path d="M22.548.076H1.498A.548.548 0 00.95.624v5.903c0 .303.246.549.549.549H2.92v9.445c0 .303.246.548.549.548h17.132a.548.548 0 00.549-.548V7.076h1.397a.548.548 0 00.548-.549V.624a.548.548 0 00-.548-.548zM2.92 5.044V1.998h18.23v3.046H2.92zm2.05 9.991v-7.96h14.15v7.96H4.97zm3.136-3.99h7.786c.706 0 1.28-.575 1.28-1.281v.49c0-.706-.574-1.28-1.28-1.28H8.107c-.706 0-1.28.574-1.28 1.28v-.49c0 .706.574 1.28 1.28 1.28z" /></symbol><symbol viewBox="0 0 18 11" id="ui_arrow_down"><path fill-rule="evenodd" d="M8.109 10.41L.369 2.265a1.377 1.377 0 010-1.876 1.217 1.217 0 011.783 0L9 7.594 15.848.39a1.217 1.217 0 011.783 0 1.377 1.377 0 010 1.876L9.89 10.41c-.246.26-.57.39-.891.39-.322 0-.645-.132-.89-.39h-.001z" /></symbol><symbol viewBox="0 0 7 11" id="ui_arrow_left"><path d="M1.11 6.045l4.608 4.73a.737.737 0 001.062 0 .785.785 0 000-1.09L2.702 5.5 6.78 1.316a.785.785 0 000-1.09.737.737 0 00-1.062 0L1.11 4.956a.78.78 0 000 1.088z" /></symbol><symbol viewBox="0 0 12 12" id="ui_arrow_line_right"><path d="M0 5.25h9.15l-4.2-4.2L6 0l6 6-6 6-1.05-1.05 4.2-4.2H0z" /></symbol><symbol viewBox="0 0 7 11" id="ui_arrow_right"><path fill-rule="evenodd" d="M5.89 4.955L1.283.225a.737.737 0 00-1.062 0 .785.785 0 000 1.09L4.298 5.5.22 9.684a.785.785 0 000 1.09c.294.3.77.3 1.062 0l4.609-4.73a.776.776 0 000-1.088v-.001z" /></symbol><symbol viewBox="0 0 18 11" id="ui_arrow_up"><path fill-rule="evenodd" d="M8.109.39L.369 8.535a1.377 1.377 0 000 1.876c.492.519 1.29.519 1.783 0L9 3.206l6.848 7.205c.492.519 1.29.519 1.783 0a1.377 1.377 0 000-1.876L9.89.39A1.222 1.222 0 009 0c-.322 0-.645.132-.89.39h-.001z" /></symbol><symbol viewBox="0 0 19 11" id="ui_behance"><path d="M16.557 1.5h-4.474V.44h4.474V1.5zM9.105 5.848c.289.426.433.944.433 1.553 0 .628-.163 1.193-.494 1.691-.21.33-.472.608-.786.833a3.11 3.11 0 01-1.253.532 8.112 8.112 0 01-1.569.143H.433V0h5.365C7.15.021 8.109.395 8.675 1.129c.34.45.508.99.508 1.619 0 .648-.17 1.166-.513 1.56-.19.221-.473.422-.846.603.565.198.994.509 1.28.937zm-6.11-1.669h2.35c.484 0 .874-.088 1.175-.263.3-.175.45-.485.45-.932 0-.493-.198-.82-.596-.978-.342-.109-.78-.165-1.311-.165H2.995v2.338zm4.202 3.07c0-.55-.236-.931-.707-1.135-.263-.116-.634-.176-1.11-.18H2.994v2.825h2.348c.482 0 .855-.06 1.125-.186.485-.231.73-.67.73-1.324zm11.02-1.724c.054.347.078.85.068 1.507h-5.794c.032.763.308 1.297.832 1.602.316.192.699.285 1.147.285.473 0 .858-.114 1.155-.348.161-.124.304-.3.427-.52h2.124c-.056.45-.312.907-.771 1.371-.712.739-1.71 1.109-2.993 1.109-1.06 0-1.993-.312-2.803-.934-.808-.625-1.214-1.637-1.214-3.042 0-1.317.365-2.325 1.095-3.027.734-.703 1.68-1.053 2.847-1.053.692 0 1.315.118 1.872.355a3.18 3.18 0 011.373 1.124c.327.452.537.975.635 1.57zm-2.09.198c-.04-.528-.224-.927-.557-1.2-.33-.274-.741-.411-1.233-.411-.535 0-.948.146-1.241.435-.296.288-.48.68-.555 1.176h3.585z" /></symbol><symbol fill="none" viewBox="0 0 11 13" id="ui_blank"><path d="M5.95 1H2.1A1.1 1.1 0 001 2.1v8.8A1.1 1.1 0 002.1 12h6.6a1.1 1.1 0 001.1-1.1V4.85L5.95 1z" stroke="#818181" stroke-linecap="round" stroke-linejoin="round" /><path d="M5.95 1v3.85H9.8" stroke="#818181" stroke-linecap="round" stroke-linejoin="round" /></symbol><symbol viewBox="0 0 16 15" id="ui_calendar"><path d="M11.043.941V0h-1.13v.941H6.086V0h-1.13v.941H0v13.553h16V.941h-4.957zm-6.086 1.13v.94h1.13v-.94h3.827v.753h1.13v-.753h3.827v1.882H1.129V2.07h3.828zM1.129 13.365V5.082h13.742v8.283H1.129zm2.542-3.389v1.883h1.882V9.976H3.67zm3.388 0v1.883h1.882V9.976H7.06zm3.388 0v1.883h1.882V9.976h-1.882zM7.059 6.588v1.883h1.882V6.588H7.06zm3.388 0v1.883h1.882V6.588h-1.882zm-6.776 0v1.883h1.882V6.588H3.67z" /></symbol><symbol viewBox="0 0 300 300" id="ui_cancel"><path d="M150 0C67.055 0 0 67.055 0 150s67.055 150 150 150 150-67.055 150-150S232.945 0 150 0zm0 275.092c-68.957 0-125.092-56.135-125.092-125.092S81.043 24.908 150 24.908 275.092 81.043 275.092 150 218.957 275.092 150 275.092zm67.669-192.76c-5.092-5.093-12.761-5.093-17.853 0L150 132.146l-49.755-49.754c-5.092-5.092-12.76-5.092-17.852 0-5.092 5.092-5.092 12.76 0 17.852L132.147 150l-49.754 49.755c-5.092 5.092-5.277 12.944 0 17.852 3.987 3.681 11.533 6.381 17.852 0L150 167.853l49.755 49.754c7.607 7.178 15.337 2.577 17.852 0 5.092-5.092 5.092-12.76 0-17.852L167.853 150l49.754-49.755c5.154-5.153 5.154-12.822.062-17.914z" fill="#e92a40" /></symbol><symbol viewBox="0 0 20 16" id="ui_check"><path d="M.23 8.462C.078 8.308 0 8.077 0 7.923s.077-.385.23-.538l1.078-1.077a.744.744 0 011.077 0l.077.077 4.23 4.538a.372.372 0 00.539 0L17.538.231h.077a.744.744 0 011.077 0l1.077 1.077a.744.744 0 010 1.077L7.462 15.154a.698.698 0 01-.539.23.698.698 0 01-.538-.23l-6-6.462z" /></symbol><symbol viewBox="0 0 11 12" id="ui_chronograph"><path d="M6.917 0H3.583v1.111h3.334V0zM4.694 7.222h1.112V3.89H4.694v3.333zM9.14 3.556l.833-.778C9.694 2.5 9.417 2.222 9.14 2l-.778.778C7.528 2.11 6.417 1.667 5.25 1.667a4.98 4.98 0 00-5 5c0 2.777 2.222 5 5 5s5-2.223 5-5c0-1.167-.389-2.278-1.111-3.111zm-3.889 7a3.865 3.865 0 01-3.889-3.89A3.865 3.865 0 015.25 2.779a3.865 3.865 0 013.889 3.889 3.865 3.865 0 01-3.889 3.889z" /></symbol><symbol viewBox="0 0 10 10" id="ui_close"><path fill-rule="evenodd" d="M9.096 0L5 4.097.903 0 0 .904 4.096 5 0 9.097.903 10 5 5.904 9.096 10 10 9.097 5.903 5 10 .904z" /></symbol><symbol viewBox="0 0 20 20" id="ui_comments"><path d="M15.156 16.754a2.488 2.488 0 00-1.908.14 8.045 8.045 0 01-3.62.856 8.074 8.074 0 01-7.267-4.492A8.037 8.037 0 011.5 9.625l-.002-.51c.238-4.111 3.506-7.38 7.53-7.615h.622c1.244 0 2.49.296 3.604.86a8.076 8.076 0 014.496 7.27 8.022 8.022 0 01-.856 3.618 2.494 2.494 0 00-.136 1.919l.83 2.43-2.432-.843zM1.02 13.928a9.574 9.574 0 008.608 5.322 9.545 9.545 0 004.296-1.017.988.988 0 01.758-.056L20 20.02l-1.823-5.338a.988.988 0 01.056-.758 9.522 9.522 0 001.017-4.298 9.575 9.575 0 00-5.326-8.608A9.522 9.522 0 009.65 0h-.621A9.59 9.59 0 000 9.029v.596a9.526 9.526 0 001.02 4.303z" /></symbol><symbol viewBox="0 0 8 8" id="ui_comments_fill"><path d="M.408 5.566A3.83 3.83 0 003.85 7.692c.6 0 1.191-.14 1.719-.406a.396.396 0 01.303-.022L8 8l-.73-2.133a.394.394 0 01.023-.303c.268-.53.409-1.123.407-1.718A3.826 3.826 0 005.57.406 3.812 3.812 0 003.86 0h-.248A3.834 3.834 0 000 3.608v.238c-.002.595.14 1.189.408 1.72z" /></symbol><symbol fill="none" viewBox="0 0 14 14" id="ui_cup"><path d="M.41 1.01h1.196c.329 0 .59-.271.59-.6a.41.41 0 01.41-.41h8.787a.41.41 0 01.41.41c0 .329.262.6.59.6h1.197a.41.41 0 01.41.41c0 1.838-.48 3.572-1.352 4.883-.769 1.155-1.764 1.87-2.85 2.064a1.368 1.368 0 00-.687.334c-.05.045-.1.09-.15.131-.266.224-.453.54-.453.887v.576c0 .38.309.688.689.688a1.51 1.51 0 011.508 1.509v.658c0 .017.013.03.03.03a.41.41 0 110 .82h-7.47a.41.41 0 110-.82.03.03 0 00.03-.03v-.658a1.51 1.51 0 011.508-1.509c.38 0 .689-.308.689-.688v-.576c0-.347-.187-.663-.453-.887-.05-.042-.1-.086-.15-.131a1.368 1.368 0 00-.687-.334c-1.086-.194-2.081-.91-2.85-2.064C.48 4.993 0 3.258 0 1.421a.41.41 0 01.41-.41zM11.965 5.85c.599-.901.992-2.033 1.144-3.266.05-.409-.281-.752-.693-.752-.377 0-.69.29-.734.665-.191 1.616-.604 3.101-1.209 4.31-.103.208.093.424.285.295.442-.295.85-.717 1.207-1.252zm-9.93 0c.357.535.765.957 1.207 1.252.192.129.388-.087.285-.294-.605-1.21-1.018-2.695-1.209-4.31a.747.747 0 00-.734-.666c-.412 0-.743.343-.693.752.152 1.233.545 2.365 1.144 3.266z" fill="#FED077" /><path d="M.41 1.01h1.196c.329 0 .59-.271.59-.6a.41.41 0 01.41-.41h8.787a.41.41 0 01.41.41c0 .329.262.6.59.6h1.197a.41.41 0 01.41.41c0 1.838-.48 3.572-1.352 4.883-.769 1.155-1.764 1.87-2.85 2.064a1.368 1.368 0 00-.687.334c-.05.045-.1.09-.15.131-.266.224-.453.54-.453.887v.576c0 .38.309.688.689.688a1.51 1.51 0 011.508 1.509v.658c0 .017.013.03.03.03a.41.41 0 110 .82h-7.47a.41.41 0 110-.82.03.03 0 00.03-.03v-.658a1.51 1.51 0 011.508-1.509c.38 0 .689-.308.689-.688v-.576c0-.347-.187-.663-.453-.887-.05-.042-.1-.086-.15-.131a1.368 1.368 0 00-.687-.334c-1.086-.194-2.081-.91-2.85-2.064C.48 4.993 0 3.258 0 1.421a.41.41 0 01.41-.41zM11.965 5.85c.599-.901.992-2.033 1.144-3.266.05-.409-.281-.752-.693-.752-.377 0-.69.29-.734.665-.191 1.616-.604 3.101-1.209 4.31-.103.208.093.424.285.295.442-.295.85-.717 1.207-1.252zm-9.93 0c.357.535.765.957 1.207 1.252.192.129.388-.087.285-.294-.605-1.21-1.018-2.695-1.209-4.31a.747.747 0 00-.734-.666c-.412 0-.743.343-.693.752.152 1.233.545 2.365 1.144 3.266z" fill="#000" fill-opacity=".2" /></symbol><symbol viewBox="0 0 28 28" id="ui_download"><path d="M3.5 19.379a1.5 1.5 0 00-3 0v6.62A1.5 1.5 0 002 27.5h24a1.5 1.5 0 001.5-1.5v-6.62a1.5 1.5 0 00-3 0v5.12h-21v-5.12zm12-17.387a1.5 1.5 0 10-3 .013l.06 14.524-6.527-6.208a1.5 1.5 0 00-2.067 2.174l9.076 8.632a1.5 1.5 0 002.075-.008l8.924-8.616a1.5 1.5 0 10-2.084-2.158l-6.396 6.176L15.5 1.992z" /></symbol><symbol viewBox="0 0 22 16" id="ui_email"><path d="M20.831 2.566c.643-.487 1.169-.226 1.169.58v10.788a1.47 1.47 0 01-1.467 1.466H1.467A1.47 1.47 0 010 13.934V3.146c0-.806.526-1.067 1.169-.58L9.83 9.14c.324.242.748.361 1.171.356.423.005.847-.113 1.17-.356l8.66-6.575zM1.74.91C1.106.41 1.25 0 2.057 0h17.887c.806 0 .95.41.315.91l-7.925 6.277c-.36.285-.854.41-1.334.387-.481.023-.977-.103-1.336-.387L1.74.91z" /></symbol><symbol viewBox="0 0 18 14" id="ui_email_2"><path fill-rule="evenodd" clip-rule="evenodd" d="M3.383 0C1.533 0 0 1.435 0 3.217v7.566C0 12.565 1.534 14 3.383 14h11.235C16.465 14 18 12.565 18 10.783V3.217C18 1.435 16.466 0 14.617 0H3.383zm5.173 7.575l-6.787-5c.256-.587.885-1.023 1.614-1.023h11.235c.725 0 1.358.434 1.634 1.027L9.47 7.575H9.47a.798.798 0 01-.914 0zM1.61 10.783V4.424l5.953 4.393c.412.307.937.472 1.436.472.499 0 1.024-.166 1.437-.472l5.952-4.393v6.36c0 .902-.786 1.664-1.771 1.664H3.383c-.986 0-1.772-.762-1.772-1.665z" /><path clip-rule="evenodd" d="M3.383 0C1.533 0 0 1.435 0 3.217v7.566C0 12.565 1.534 14 3.383 14h11.235C16.465 14 18 12.565 18 10.783V3.217C18 1.435 16.466 0 14.617 0H3.383zm5.173 7.575l-6.787-5c.256-.587.885-1.023 1.614-1.023h11.235c.725 0 1.358.434 1.634 1.027L9.47 7.575H9.47a.798.798 0 01-.914 0zM1.61 10.783V4.424l5.953 4.393c.412.307.937.472 1.436.472.499 0 1.024-.166 1.437-.472l5.952-4.393v6.36c0 .902-.786 1.664-1.771 1.664H3.383c-.986 0-1.772-.762-1.772-1.665z" fill="none" /></symbol><symbol viewBox="0 0 18 4" id="ui_etc"><path d="M2 4a2 2 0 110-4 2 2 0 010 4zm7 0a2 2 0 110-4 2 2 0 010 4zm7 0a2 2 0 110-4 2 2 0 010 4z" /></symbol><symbol viewBox="0 0 5 18" id="ui_exclamation"><path d="M1.046 1.583c0-.941.771-1.472 1.76-1.472.941 0 1.737.53 1.737 1.472 0 1.435-.084 3.184-.169 4.933-.084 1.748-.168 3.497-.168 4.932 0 .748-.82 1.062-1.4 1.062-.771 0-1.423-.314-1.423-1.062 0-1.435-.084-3.184-.169-4.933-.084-1.748-.168-3.497-.168-4.932zM.973 16.03c0-1.013.796-1.857 1.858-1.857.989 0 1.833.844 1.833 1.857 0 .99-.844 1.858-1.833 1.858A1.858 1.858 0 01.973 16.03z" /></symbol><symbol viewBox="0 0 11 11" id="ui_external"><path d="M8.5 5a.5.5 0 01.5.5v5a.5.5 0 01-.5.5h-8a.5.5 0 01-.5-.5v-8A.5.5 0 01.5 2h5a.5.5 0 110 1H1v7h7V5.5a.5.5 0 01.5-.5zm2-5a.5.5 0 01.5.5v4a.5.5 0 01-1 0V1.707L4.854 6.854a.498.498 0 01-.708 0 .5.5 0 010-.708L9.293 1H6.5a.5.5 0 010-1h4z" /></symbol><symbol viewBox="0 0 300 300" id="ui_eye"><path clip-rule="evenodd" d="M296.13 143.37c2.97 3.72 3.09 8.925.3 12.75-2.55 3.45-62.355 83.7-148.455 83.7-50.775 0-99.255-27.99-144.075-83.25-3-3.72-3.105-8.94-.3-12.75 2.46-3.42 62.28-83.67 148.38-83.655 50.775 0 99.255 28.005 144.15 83.205zm-270.81 6.57c39.15 45.81 80.355 69.09 122.655 69.09h.015c62.58 0 111.33-50.82 126.63-68.97-39.135-45.81-80.355-69.09-122.655-69.09-62.595 0-111.315 50.85-126.645 68.97zm71.85.06c0-29.1 23.7-52.8 52.8-52.8s52.8 23.7 52.8 52.8-23.7 52.8-52.8 52.8-52.8-23.7-52.8-52.8zm20.805 0c0 17.64 14.37 32.01 31.995 32.01h.015c17.64 0 31.98-14.37 31.98-32.01s-14.355-32.01-31.995-32.01c-17.625 0-31.995 14.37-31.995 32.01z" fill-rule="evenodd" /></symbol><symbol viewBox="0 0 8 14" id="ui_facebook"><path fill-rule="evenodd" d="M8 2.324H6.55c-1.137 0-1.358.492-1.358 1.212v1.589h2.713l-.354 2.49H5.192V14H2.365V7.614H0v-2.49h2.365V3.29C2.365 1.16 3.796 0 5.887 0 6.888 0 7.749.067 8 .098v2.226z" /></symbol><symbol viewBox="0 0 10 13" id="ui_flag"><path clip-rule="evenodd" d="M1.215.693C1.605.536 2.182.4 3 .4c.866 0 1.583.287 2.19.53l.033.013C5.859 1.197 6.382 1.4 7 1.4c.682 0 1.106-.114 1.34-.207a1.244 1.244 0 00.252-.133.6.6 0 011.008.44v6a.6.6 0 01-.176.424L9 7.5l.424.425h-.001l-.001.002-.003.002-.006.006-.015.014a1.551 1.551 0 01-.166.128 2.43 2.43 0 01-.447.23c-.39.156-.967.293-1.785.293-.866 0-1.583-.287-2.19-.53l-.033-.013C4.141 7.803 3.618 7.6 3 7.6c-.682 0-1.106.113-1.34.207a1.72 1.72 0 00-.06.025V12a.6.6 0 11-1.2 0V1.5a.6.6 0 01.176-.424L1 1.5l-.424-.425h.001l.001-.002.003-.003.006-.006.015-.014.041-.035C.675.99.717.957.769.923c.104-.07.25-.152.446-.23z" fill-rule="evenodd" /></symbol><symbol viewBox="0 0 15 25" id="ui_flash"><path d="M4.177.45C4.1.31 13.953 11.222 13.793 11.222H8.98V3.785a.438.438 0 00-.805-.237L.3 15.798a.438.438 0 00.368.673H5.48v7.438a.438.438 0 00.806.237l7.875-12.25C14.248 11.762 4.254.591 4.177.45z" /></symbol><symbol viewBox="0 0 14 16" id="ui_gear"><path d="M3.743 8c0-1.818 1.46-3.294 3.257-3.294 1.797 0 3.264 1.476 3.264 3.294S8.797 11.294 7 11.294c-1.797 0-3.257-1.476-3.257-3.294zM7 5.98a1.79 1.79 0 00-.55.084c-.063.014-.118.042-.173.063-.007 0-.014.007-.02.007-.249.097-.483.25-.662.445a2.016 2.016 0 000 2.842c.035.048.083.09.131.132l.158.118.166.105c.22.118.468.202.723.23.075.006.151.014.227.014A2.01 2.01 0 008.997 8c0-.557-.22-1.059-.585-1.42a1.713 1.713 0 00-.29-.251 1.785 1.785 0 00-.247-.147A2.068 2.068 0 007 5.98zM2.613 4.1a.411.411 0 00-.557.153l-.737 1.289a.42.42 0 00.151.564l1.026.599-.082.445a4.697 4.697 0 000 1.7l.082.445-1.026.6a.42.42 0 00-.151.563l.737 1.288c.11.195.365.265.557.154l1.026-.6.338.293c.434.37.923.655 1.453.85l.413.153v1.19c0 .12.048.23.13.307a.405.405 0 00.297.133h1.467c.11 0 .206-.05.29-.133a.163.163 0 00.054-.062.425.425 0 00.076-.244v-1.19l.413-.154c.53-.195 1.02-.48 1.453-.85l.338-.292.04.02.986.579a.42.42 0 00.564-.154l.73-1.288a.414.414 0 00-.151-.564l-1.02-.599.076-.445a4.697 4.697 0 000-1.7l-.075-.445 1.019-.6c.2-.11.261-.368.151-.563l-.73-1.289a.42.42 0 00-.564-.153l-1.026.6-.338-.293a4.626 4.626 0 00-1.453-.85l-.413-.153v-1.19c0-.238-.2-.44-.42-.44H6.27a.417.417 0 00-.29.133.164.164 0 00-.054.062.425.425 0 00-.076.244v1.19l-.413.154a4.625 4.625 0 00-1.453.85l-.007.007-.338.285-.02-.007-.02-.014-.986-.578zm.634 8.907a1.676 1.676 0 01-2.293-.62L.224 11.1A1.714 1.714 0 01.058 9.81c.11-.432.4-.801.779-1.024l.268-.16a6.353 6.353 0 010-1.254l-.268-.16a1.705 1.705 0 01-.613-2.312L.967 3.6a1.673 1.673 0 011.006-.773 1.662 1.662 0 011.274.167l.262.16c.337-.244.695-.46 1.074-.634v-.306C4.583 1.266 5.34.5 6.27.5h1.467c.93 0 1.68.766 1.68 1.713v.306c.379.175.737.384 1.074.627l.262-.153a1.674 1.674 0 012.293.62l.73 1.288a1.705 1.705 0 01-.613 2.312l-.261.16c.041.418.041.836 0 1.254l.261.16a1.705 1.705 0 01.613 2.312l-.73 1.288a1.672 1.672 0 01-2.293.62l-.262-.16a6.42 6.42 0 01-1.074.633v.307c0 .947-.75 1.713-1.68 1.713H6.27c-.93 0-1.687-.766-1.687-1.713v-.307a6.67 6.67 0 01-1.074-.626l-.262.153zm.599-8.754l.007-.006h-.007v.006zm6.308 7.5l.007-.007h-.007v.008z" /></symbol><symbol viewBox="0 0 8 11" id="ui_geopin"><path d="M4 0C1.794 0 0 1.794 0 4c0 2.737 3.58 6.756 3.732 6.925a.36.36 0 00.536 0C4.42 10.755 8 6.737 8 4c0-2.206-1.794-4-4-4zm0 6.012A2.015 2.015 0 011.988 4c0-1.11.902-2.013 2.012-2.013a2.014 2.014 0 010 4.025z" /></symbol><symbol viewBox="0 0 12 12" id="ui_globe"><path fill-rule="evenodd" d="M1.031 6.39l.485.563v1.031l.938 1.032h.577l1.423 1.75A4.99 4.99 0 011.03 6.39m4.407-5.36l-.782.328-.375-.062a4.954 4.954 0 011.157-.266M6 1c.985 0 1.9.292 2.672.781l-.406.047.094 1-.531-.235-.438.375L7.469 4l1.078-.344 1.344.437-.344.625-.812-.5-.875.125-.86.641-.484 1.5.969.797s.993-.172 1.046-.172c.054 0 .423.907.423.907l-.798 2.5A5.013 5.013 0 016 11c-.157 0-.315-.017-.469-.032l-.546-.952.531-2L3.5 6.5H1.641l-.485-.984L2.5 4.453l2-.953-.296-1.328.859-.188.406.563 1.5-.281-.265-1.157-1.11-.078C5.728 1.021 5.864 1 6 1m0-1C2.692 0 0 2.692 0 6c0 3.307 2.692 6 6 6s6-2.693 6-6c0-3.308-2.692-6-6-6" /></symbol><symbol viewBox="0 0 16 16" id="ui_google"><path d="M3.546 9.669l-.557 2.079-2.036.043A7.964 7.964 0 010 8a7.96 7.96 0 01.894-3.68l1.813.333.794 1.801a4.755 4.755 0 00.045 3.215z" fill="#FBBB00" /><path d="M15.86 6.505a8.007 8.007 0 01-.035 3.165 7.998 7.998 0 01-2.817 4.569l-2.283-.117-.323-2.017a4.768 4.768 0 002.051-2.435H8.176V6.505H15.86z" fill="#518EF8" /><path d="M13.008 14.238A7.966 7.966 0 018 16a7.999 7.999 0 01-7.047-4.209L3.546 9.67a4.757 4.757 0 006.856 2.436l2.606 2.133z" fill="#28B446" /><path d="M13.106 1.842l-2.591 2.121A4.758 4.758 0 003.5 6.454L.895 4.321A7.998 7.998 0 018 0c1.94 0 3.72.691 5.106 1.842z" fill="#F14336" /></symbol><symbol viewBox="0 0 15 19" id="ui_google_play"><path fill-rule="evenodd" d="M8.824 9.706L.662 18.075a.813.813 0 00.689-.113l9.513-6.193-2.04-2.063zm2.784-2.885l-2.15 2.234 2.15 2.234 2.233-1.47a.924.924 0 000-1.527l-2.233-1.47zM.028.686A.853.853 0 000 .912v16.286c0 .082.008.153.027.226L8.19 9.055.027.686zM1.02.008a.883.883 0 00-.358.028l8.162 8.37 2.04-2.065L1.351.149A.791.791 0 001.02.008z" /></symbol><symbol viewBox="0 0 18 18" id="ui_headphones"><path d="M1.28 9.609a4.252 4.252 0 012.99-1.222c.355 0 .64.285.64.64v7.255c0 .355-.285.64-.64.64A4.275 4.275 0 010 12.653V8.635C0 6.33.899 4.16 2.529 2.53A8.583 8.583 0 018.635 0c2.307 0 4.477.899 6.107 2.529a8.583 8.583 0 012.529 6.106c0 .044-.005.088-.015.066a.6.6 0 01.015.13v4.018A4.275 4.275 0 0113 17.12a.638.638 0 01-.64-.641V9.224c0-.355.285-.64.64-.64 1.137 0 2.2.446 2.99 1.221v-.973c0-.044.004-.088.014-.066a.6.6 0 01-.015-.13c0-4.055-3.3-7.355-7.355-7.355-4.054 0-7.354 3.3-7.354 7.354v.974zm-.003 3.044c0 1.412.995 2.621 2.348 2.918V9.735a3 3 0 00-2.348 2.918zm14.717.196a2.995 2.995 0 00-2.348-2.918v5.836a2.996 2.996 0 002.348-2.918z" /></symbol><symbol viewBox="0 0 16 16" id="ui_image"><path d="M5.378 3.806a1.6 1.6 0 100 3.2 1.6 1.6 0 000-3.2zM15.057.028H.957a.945.945 0 00-.945.944v13.096c0 .522.423.944.945.944h14.099a.944.944 0 00.945-.944V.972a.944.944 0 00-.944-.944zM13.64 13.123H5.992l5.284-5.539 2.836 2.77v2.297c0 .26-.211.472-.472.472zm-1.586-7.025a.933.933 0 00-.779-.403.929.929 0 00-.668.272c-.033.033-.06.07-.086.105l-6.807 7.052h-1.34a.472.472 0 01-.473-.472V2.389c0-.26.212-.472.473-.472H13.64c.26 0 .472.211.472.472v5.767l-2.058-2.058z" /></symbol><symbol viewBox="0 0 18 18" id="ui_info"><path fill="#C1C1C1" d="M9 0a9 9 0 100 18A9 9 0 009 0zm1.873 13.948c-.463.183-.832.322-1.108.418a2.925 2.925 0 01-.962.144c-.56 0-.997-.137-1.308-.411a1.325 1.325 0 01-.466-1.041c0-.164.012-.332.035-.503a6.27 6.27 0 01.112-.578l.58-2.048c.05-.196.095-.383.13-.557a2.47 2.47 0 00.052-.482c0-.26-.055-.444-.162-.546-.109-.103-.314-.154-.62-.154-.149 0-.303.023-.46.069a6.548 6.548 0 00-.403.134l.153-.63c.38-.155.743-.288 1.09-.398.346-.11.674-.166.982-.166.557 0 .987.136 1.29.404.3.269.452.619.452 1.048 0 .09-.01.247-.031.47-.021.225-.06.43-.116.618l-.577 2.042c-.047.164-.09.352-.127.561-.038.21-.056.37-.056.477 0 .271.06.456.182.555.12.098.332.148.63.148.141 0 .299-.026.477-.074.177-.05.305-.093.386-.13l-.155.63zm-.102-8.288c-.269.25-.593.375-.971.375a1.39 1.39 0 01-.976-.375 1.197 1.197 0 01-.406-.909c0-.354.137-.659.406-.911a1.38 1.38 0 01.976-.379c.378 0 .703.126.971.379.269.252.404.557.404.911 0 .356-.135.66-.404.91z" /></symbol><symbol viewBox="0 0 14 14" id="ui_instagram"><path d="M10.136 0H3.863A3.868 3.868 0 000 3.863v6.274A3.868 3.868 0 003.863 14h6.273A3.868 3.868 0 0014 10.137V3.863A3.868 3.868 0 0010.136 0zm2.622 10.137a2.624 2.624 0 01-2.621 2.62H3.863a2.624 2.624 0 01-2.62-2.62V3.863a2.624 2.624 0 012.62-2.62h6.273a2.624 2.624 0 012.622 2.62v6.274zM7 3.393A3.612 3.612 0 003.393 7 3.611 3.611 0 007 10.607 3.611 3.611 0 0010.607 7 3.612 3.612 0 007 3.393zm0 5.972A2.368 2.368 0 014.635 7 2.368 2.368 0 017 4.635 2.368 2.368 0 019.365 7 2.368 2.368 0 017 9.365zm3.759-7.026a.915.915 0 01.644 1.555.92.92 0 01-.644.267.918.918 0 01-.644-.266.918.918 0 01-.267-.645.915.915 0 01.91-.91z" /></symbol><symbol viewBox="0 0 18 18" id="ui_invoice"><path fill-rule="evenodd" clip-rule="evenodd" d="M17.61.081a.66.66 0 00-.71.108l-1.853 1.65L13.19.169a.658.658 0 00-.882 0l-1.853 1.668L8.603.17a.658.658 0 00-.882 0L5.865 1.839 4.012.189a.66.66 0 00-1.1.5V12.54H.662a.664.664 0 00-.662.666v1.62a3.17 3.17 0 003 3.17V18h11.977v-.003A3.17 3.17 0 0018 14.827V.687c0-.262-.153-.5-.39-.607zm-5.328 16.593H3.154v-.006c-1.01 0-1.83-.826-1.83-1.842v-.954H11.69v.954c0 .689.22 1.327.591 1.848zm2.564-.006c1.009 0 1.83-.826 1.83-1.842V2.166L15.484 3.23a.659.659 0 01-.88-.003L12.75 1.56l-1.853 1.667a.659.659 0 01-.882 0L8.162 1.56 6.309 3.227a.659.659 0 01-.88.002L4.235 2.166V12.54h8.118c.366 0 .662.298.662.666v1.62c0 1.016.821 1.842 1.83 1.842zM11.144 6H6.947a.672.672 0 00-.68.663c0 .366.304.663.68.663h4.197c.376 0 .68-.297.68-.663a.672.672 0 00-.68-.663zM6.947 9.094h7.372c.376 0 .681.297.681.663a.672.672 0 01-.68.663H6.946a.672.672 0 01-.68-.663c0-.366.304-.663.68-.663z" /></symbol><symbol viewBox="0 0 14 14" id="ui_linkedin"><path d="M12.734 0H1.266C.567 0 0 .567 0 1.266v11.468C0 13.433.567 14 1.266 14h11.468c.699 0 1.266-.567 1.266-1.266V1.266C14 .567 13.433 0 12.734 0zM4.332 12.089a.369.369 0 01-.368.368h-1.57a.369.369 0 01-.368-.368V5.512c0-.203.165-.368.369-.368h1.569c.203 0 .368.165.368.368v6.577zM3.18 4.524a1.49 1.49 0 110-2.981 1.49 1.49 0 010 2.98zm9.352 7.594a.339.339 0 01-.34.34h-1.683a.339.339 0 01-.338-.34V9.034c0-.46.135-2.017-1.203-2.017-1.038 0-1.248 1.065-1.29 1.543v3.558a.339.339 0 01-.34.34H5.71a.339.339 0 01-.34-.34V5.482a.34.34 0 01.34-.338h1.628c.187 0 .339.151.339.338v.574c.385-.577.956-1.023 2.174-1.023 2.695 0 2.68 2.519 2.68 3.902v3.183z" /></symbol><symbol viewBox="0 0 10 13" id="ui_lock"><path fill-rule="evenodd" d="M7.222 5.909H2.777V4.136c0-.652.218-1.21.652-1.67.434-.462.958-.693 1.571-.693s1.137.23 1.571.692c.434.462.651 1.019.651 1.671V5.91zm2.535.258a.78.78 0 00-.59-.258h-.278V4.136c0-1.133-.382-2.105-1.146-2.917C6.98.406 6.065 0 5 0S3.02.406 2.257 1.22C1.493 2.03 1.11 3.002 1.11 4.135V5.91H.833a.782.782 0 00-.59.258.885.885 0 00-.243.628v5.319c0 .246.081.455.243.627.162.173.359.259.59.259h8.334a.782.782 0 00.59-.259.885.885 0 00.243-.627V6.795a.883.883 0 00-.243-.628z" /></symbol><symbol viewBox="0 0 15 16" id="ui_logout"><path d="M12 10V8H7V6h5V4l3 3-3 3zm-1-1v4H6v3l-6-3V0h11v5h-1V1H2l4 2v9h4V9h1z" /></symbol><symbol fill="none" viewBox="0 0 300 188" id="ui_maestro"><path d="M92.537 185.054c51.084 0 92.496-41.412 92.496-92.496 0-51.084-41.412-92.495-92.496-92.495C41.454.063.042 41.475.042 92.558c0 51.084 41.412 92.496 92.495 92.496z" fill="#eb001b" /><path d="M207.455 185.054c51.084 0 92.496-41.412 92.496-92.496 0-51.084-41.412-92.495-92.496-92.495-51.083 0-92.495 41.412-92.495 92.495 0 51.084 41.412 92.496 92.495 92.496z" fill="#0099df" /><path d="M114.962 92.557c0 29.369 13.69 55.538 35.035 72.481 21.344-16.943 35.036-43.112 35.036-72.481 0-29.37-13.691-55.539-35.036-72.482-21.344 16.945-35.035 43.113-35.035 72.482z" fill="#6c6bbd" /></symbol><symbol viewBox="0 0 19 18" id="ui_magic"><path fill-rule="evenodd" clip-rule="evenodd" d="M10.156 3.375c.339 0 .614-.275.614-.614V.614a.614.614 0 10-1.228 0v2.147c0 .34.274.614.614.614zM7.17 4.905a.612.612 0 01-.435-.18L5.218 3.209a.614.614 0 01.87-.869l1.517 1.518a.614.614 0 01-.434 1.048zm6.453.34a.612.612 0 01-.869 0 .614.614 0 010-.869l1.518-1.518a.614.614 0 11.869.869l-1.518 1.518zm-.348 5.151c.24-.24.629-.24.868 0l1.518 1.518a.614.614 0 01-.868.869l-1.518-1.518a.614.614 0 010-.869zm4.11-3.166H15.24a.614.614 0 000 1.23l2.147-.001a.614.614 0 000-1.229zm-6.574-2.198l2.158 2.157c.24.24.24.629 0 .869l-.389.388-1.769 1.77-.002.001-7.603 7.604a.612.612 0 01-.869 0L.181 15.663a.615.615 0 010-.869l7.604-7.603v-.002l2.159-2.157c.24-.24.628-.24.868 0zm-.434 3.88l1.288-1.288-1.288-1.289-1.289 1.289 1.289 1.288zM1.484 15.23l1.289 1.288 6.736-6.736L8.22 8.493l-6.736 6.736z" /><path fill-rule="evenodd" clip-rule="evenodd" d="M10.156 3.375c.339 0 .614-.275.614-.614V.614a.614.614 0 10-1.228 0v2.147c0 .34.274.614.614.614zM7.17 4.905a.612.612 0 01-.435-.18L5.218 3.209a.614.614 0 01.87-.869l1.517 1.518a.614.614 0 01-.434 1.048zm6.453.34a.612.612 0 01-.869 0 .614.614 0 010-.869l1.518-1.518a.614.614 0 11.869.869l-1.518 1.518zm-.348 5.151c.24-.24.629-.24.868 0l1.518 1.518a.614.614 0 01-.868.869l-1.518-1.518a.614.614 0 010-.869zm4.11-3.166H15.24a.614.614 0 000 1.23l2.147-.001a.614.614 0 000-1.229zm-6.574-2.198l2.158 2.157c.24.24.24.629 0 .869l-.389.388-1.769 1.77-.002.001-7.603 7.604a.612.612 0 01-.869 0L.181 15.663a.615.615 0 010-.869l7.604-7.603v-.002l2.159-2.157c.24-.24.628-.24.868 0zm-.434 3.88l1.288-1.288-1.288-1.289-1.289 1.289 1.289 1.288zM1.484 15.23l1.289 1.288 6.736-6.736L8.22 8.493l-6.736 6.736z" style="mix-blend-mode:multiply" /></symbol><symbol fill="none" viewBox="0 0 300 188" id="ui_mastercard"><path d="M92.537 185.054c51.084 0 92.496-41.412 92.496-92.496 0-51.084-41.412-92.495-92.496-92.495C41.454.063.042 41.475.042 92.558c0 51.084 41.412 92.496 92.495 92.496z" fill="#ee0005" /><path d="M207.456 185.054c51.083 0 92.495-41.412 92.495-92.496 0-51.084-41.412-92.495-92.495-92.495-51.084 0-92.496 41.412-92.496 92.495 0 51.084 41.412 92.496 92.496 92.496z" fill="#f9a000" /><path d="M114.962 92.557c0 29.369 13.69 55.538 35.035 72.481 21.344-16.943 35.036-43.112 35.036-72.481 0-29.37-13.691-55.539-35.036-72.482-21.344 16.945-35.035 43.113-35.035 72.482z" fill="#ff6300" /></symbol><symbol viewBox="0 0 10 10" id="ui_mention"><path fill-rule="evenodd" clip-rule="evenodd" d="M2.58 5A2.422 2.422 0 015 2.58 2.422 2.422 0 017.42 5a.807.807 0 001.612 0A4.037 4.037 0 005 .968 4.037 4.037 0 00.968 5 4.037 4.037 0 005 9.032c1.077 0 2.09-.42 2.851-1.18l.685.684A4.967 4.967 0 015 10c-2.757 0-5-2.243-5-5s2.243-5 5-5 5 2.243 5 5c0 .978-.796 1.774-1.774 1.774-.46 0-.879-.175-1.194-.463A2.419 2.419 0 012.58 5zm.968 0c0 .8.652 1.452 1.452 1.452.8 0 1.452-.652 1.452-1.452 0-.8-.652-1.452-1.452-1.452-.8 0-1.452.652-1.452 1.452z" /></symbol><symbol fill="none" viewBox="0 0 300 91" id="ui_mir"><path d="M25.916 88.313H.38V5.669h25.537c11.429 0 13.946 8.624 15.246 12.928l10.537 35.691c.195.696.414 1.155 1.032 1.188.617-.034.837-.492 1.032-1.188L64.3 18.599c1.3-4.305 3.817-12.93 15.245-12.93h25.538v82.645H79.545V39.674c-.453-1.276-2.26-1.042-2.554.004L61.67 88.313H43.793L28.47 39.678c-.295-1.046-2.101-1.28-2.554-.004zM142.31 5.669h-25.537v82.644h25.537c4.388 0 6.973-2.089 11.273-11.367l17.059-37.69c.294-1.045 2.144-1.28 2.596-.003v49.06h25.538V5.669h-25.538c-5.745.302-8.553 6.89-10.627 11.366l-17.747 37.268c-.295 1.046-2.101 1.28-2.554.004zm68.9 37.702h80.243c-2.7 8.015-11.993 18.46-26.366 18.46h-28.339v26.482H211.21z" fill="#3ba336" /><path d="M292.605 39.253h-42.309c-20.462 0-39.174-11.32-42.42-33.584h57.211c17.435 0 30.88 15.963 27.518 33.584z" fill="#019ad7" /></symbol><symbol viewBox="0 0 9 15" id="ui_odnoklassniki"><path d="M4.116 7.324a3.672 3.672 0 003.662-3.662C7.778 1.628 6.11 0 4.116 0S.454 1.668.454 3.662s1.628 3.662 3.662 3.662zm0-5.208c.855 0 1.506.692 1.506 1.505 0 .855-.692 1.506-1.506 1.506A1.502 1.502 0 012.611 3.62c0-.813.65-1.505 1.505-1.505zm1.506 8.178l2.075 2.116a1.081 1.081 0 010 1.506 1.081 1.081 0 01-1.506 0L4.157 11.88l-2.035 2.035a1.112 1.112 0 01-.773.325c-.284 0-.57-.122-.773-.325a1.081 1.081 0 010-1.506l2.035-2.075c-.733-.163-1.465-.488-2.116-.895-.488-.326-.651-1.017-.326-1.506.285-.488.977-.65 1.465-.325a4.74 4.74 0 004.964 0c.489-.326 1.14-.163 1.465.325.326.489.163 1.14-.325 1.465a6.038 6.038 0 01-2.116.895z" /></symbol><symbol viewBox="0 0 18 18" id="ui_order"><path fill="#AF9556" d="M3.154 16.674h9.128a3.17 3.17 0 01-.59-1.848v-.954H1.323v.954c0 1.016.82 1.842 1.83 1.842v.006zm11.823 1.323V18H3v-.004a3.17 3.17 0 01-3-3.17v-1.62c0-.368.296-.666.662-.666h2.25V.688a.66.66 0 111.1-.499l1.853 1.65L7.721.169a.658.658 0 01.882 0l1.853 1.668L12.309.17a.659.659 0 01.882 0l1.856 1.669L16.9.189a.66.66 0 01.71-.108c.237.108.39.345.39.607v14.138a3.17 3.17 0 01-3.023 3.171zm1.7-3.17V2.166l-1.194 1.062a.659.659 0 01-.88-.003L12.75 1.56l-1.853 1.667a.659.659 0 01-.882 0L8.162 1.56 6.309 3.227a.659.659 0 01-.88.002L4.235 2.166V12.54h8.118c.366 0 .662.298.662.666v1.62c0 1.016.821 1.842 1.83 1.842 1.01 0 1.832-.826 1.832-1.842zM11.144 6c.376 0 .68.297.68.663a.672.672 0 01-.68.663H6.947a.672.672 0 01-.68-.663c0-.366.304-.663.68-.663h4.197zm3.175 3.094c.376 0 .681.297.681.663a.672.672 0 01-.68.663H6.946a.672.672 0 01-.68-.663c0-.366.304-.663.68-.663h7.372z" /></symbol><symbol viewBox="0 0 12 14" id="ui_pencil"><path d="M.462 13.373l.517-3.245 2.507 1.959-3.024 1.286zm3.696-1.784L1.3 9.355l4.963-6.353 2.859 2.234-4.964 6.353zM6.76 2.367L8.364.313l2.86 2.233L9.617 4.6 6.76 2.367z" /></symbol><symbol viewBox="0 0 13 13" id="ui_photo"><path d="M4.363 3.073a1.301 1.301 0 100 2.602 1.301 1.301 0 000-2.602zM12.233 0H.768A.768.768 0 000 .768V11.42c0 .425.344.768.768.768H12.232A.768.768 0 0013 11.42V.768A.767.767 0 0012.233 0zM11.08 10.651H4.862l4.296-4.505L11.464 8.4v1.868a.384.384 0 01-.384.384zM9.791 4.938a.758.758 0 00-.633-.328.755.755 0 00-.544.22c-.027.028-.048.057-.07.086L3.01 10.652H1.92a.384.384 0 01-.384-.384V1.92c0-.212.172-.384.384-.384h9.16c.212 0 .384.172.384.384v4.69L9.791 4.938z" /></symbol><symbol viewBox="0 0 12 12" id="ui_pin"><path fill-rule="evenodd" d="M8.28.208A.706.706 0 007.28.205a.709.709 0 00-.159.25c-.587 1.226-1.234 1.917-2.05 2.325-.915.452-1.966.766-3.66.766a.71.71 0 00-.652.436.707.707 0 00.153.769l2.29 2.29L0 11.31l4.27-3.203 2.29 2.289a.688.688 0 00.23.153.7.7 0 00.92-.382.696.696 0 00.055-.27c0-1.693.313-2.744.764-3.646.407-.816 1.099-1.462 2.325-2.05a.694.694 0 00.25-.158.706.706 0 00-.003-.998L8.279.208z" /></symbol><symbol viewBox="0 0 12 12" id="ui_plus"><path fill-rule="evenodd" d="M5 0v5H0v2h5v5h2V7h4.999V5H7V0z" /></symbol><symbol viewBox="0 0 18 18" id="ui_qr"><path fill-rule="evenodd" d="M0 18h7.915v-7.964H0V18zm1.636-1.65v-4.896h4.91v4.897h-4.91zm1.637-1.623h1.636v-1.636H3.273v1.636zM13.09 18v-1.637h1.637V18H13.09zm3.273 0v-1.637H18V18h-1.637zm0-7.965H18v4.692h-4.91v-1.636h-1.636V18h-1.46v-7.965h4.733v1.42h1.636v-1.42zM0 7.99V0h7.988v7.99H0zm1.636-1.445h4.91V1.636h-4.91v4.91zM3.273 4.91V3.273h1.636v1.636H3.273zm6.73 3.118V0H18v8.027h-7.996zm1.451-1.482h4.91V1.636h-4.91v4.91zM13.09 4.91V3.273h1.637v1.636H13.09z" /></symbol><symbol viewBox="0 0 13 13" id="ui_refresh"><path d="M6.56 13a6.377 6.377 0 01-3.462-1.018A6.497 6.497 0 01.765 9.339l.956-.469c.908 1.886 2.763 3.058 4.839 3.058 2.965 0 5.378-2.435 5.378-5.428S9.525 1.072 6.56 1.072c-1.765 0-3.415.89-4.411 2.325l1.637 1.535L0 5.29V1.238L1.386 2.63a6.485 6.485 0 011.69-1.598A6.375 6.375 0 016.56 0C10.111 0 13 2.916 13 6.5S10.111 13 6.56 13z" /></symbol><symbol viewBox="0 0 10 9" id="ui_reply"><path d="M3.928.5L0 4.428l3.928 3.928v-2.3c2.806 0 4.67-.24 6.072 1.725-1.403-3.092-2.144-4.475-6.072-5.036V.5z" /></symbol><symbol viewBox="0 0 19 20" id="ui_share_android"><path d="M14.782 12.287a3.619 3.619 0 11.004 7.238 3.622 3.622 0 01-3.613-3.62c0-.354.053-.706.156-1.045L6.38 12.09a3.608 3.608 0 01-2.761 1.289A3.622 3.622 0 010 9.758 3.622 3.622 0 013.614 6.14c1.079 0 2.08.478 2.758 1.285l4.945-2.767A3.619 3.619 0 0114.778 0a3.619 3.619 0 010 7.238 3.604 3.604 0 01-2.757-1.285L7.07 8.721a3.637 3.637 0 01.003 2.07l4.955 2.773a3.61 3.61 0 012.753-1.277zm0-10.81a2.147 2.147 0 000 4.294 2.147 2.147 0 000-4.295zM3.618 11.904a2.147 2.147 0 000-4.294 2.147 2.147 0 000 4.294zm11.164 6.144a2.147 2.147 0 000-4.294 2.147 2.147 0 000 4.294z" /></symbol><symbol viewBox="0 0 19 21" id="ui_share_ios"><path d="M17.2 18.617v-3.923a.8.8 0 011.6 0v4.723a.8.8 0 01-.8.8H1a.8.8 0 01-.8-.8v-4.723a.8.8 0 011.6 0v3.923h15.4zM8.652 3.124l-4.97 4.83a.8.8 0 01-1.115-1.146L8.851.699a.809.809 0 01.366-.23.785.785 0 01.785.192l6.426 6.154a.8.8 0 01-1.106 1.156l-5.07-4.855.038 11.34a.8.8 0 01-1.6.005L8.652 3.124z" /></symbol><symbol viewBox="0 0 13 13" id="ui_shop"><path d="M3.9 10.4c-.715 0-1.3.585-1.3 1.3 0 .715.585 1.3 1.3 1.3.715 0 1.3-.585 1.3-1.3 0-.715-.585-1.3-1.3-1.3zM0 0v1.3h1.3l2.34 4.94-.91 1.56c-.065.195-.13.455-.13.65 0 .715.585 1.3 1.3 1.3h7.8v-1.3H4.16a.14.14 0 01-.13-.13v-.065l.585-1.105h4.81c.52 0 .91-.26 1.105-.65l2.34-4.225c.13-.13.13-.195.13-.325 0-.39-.26-.65-.65-.65H2.73L2.145 0H0zm10.4 10.4c-.715 0-1.3.585-1.3 1.3 0 .715.585 1.3 1.3 1.3.715 0 1.3-.585 1.3-1.3 0-.715-.585-1.3-1.3-1.3z" /></symbol><symbol viewBox="0 0 12 12" id="ui_star"><path d="M10.13 5.22l-3.033-.17-.087-.221L6 2.067 4.905 5.05l-.228.01-2.805.16L4.23 7.237l-.057.233-.715 2.853 2.544-1.73 2.543 1.73-.772-3.086L10.13 5.22zm1.15-.032L8.567 7.513 9.7 12l-.763-.523-2.936-2L2.301 12l.233-.93.899-3.557L0 4.581l.92-.047 3.496-.206L6 0l.33.895 1.254 3.433L12 4.581l-.72.607z" /></symbol><symbol viewBox="0 0 12 12" id="ui_star_filled"><path d="M11.28 5.188L8.567 7.513 9.7 12l-.763-.523-2.936-2L2.301 12l.233-.93.899-3.557L0 4.581l.92-.047 3.496-.206L6 0l.33.895 1.254 3.433L12 4.581l-.72.607z" /></symbol><symbol viewBox="0 0 18 12" id="ui_stats"><path d="M16.5 11.368V0h-2.4v11.368h-1.8V4.421H9.9v6.947H8.1V1.263H5.7v10.105H3.9V5.684H1.5v5.684H0V12h18v-.632h-1.5z" /></symbol><symbol fill="none" viewBox="0 0 300 267" id="ui_success"><path d="M85.147 109.043c-4.29-4.351-11.276-4.351-15.627-.061-4.351 4.289-4.351 11.275-.061 15.626l52.334 52.703c2.084 2.083 4.841 3.248 7.783 3.248h.061c2.942 0 5.699-1.165 7.783-3.187L296.752 18.898c4.29-4.29 4.351-11.276.061-15.627-4.29-4.351-11.276-4.351-15.627-.061l-56.317 55.95a126.636 126.636 0 00-98.296-46.758c-17.894 0-35.176 3.677-51.354 10.847C59.592 30.235 45.681 40.1 33.976 52.725 22.272 65.288 13.386 79.812 7.564 95.867c-6.067 16.73-8.518 34.318-7.231 52.335 4.35 62.323 54.663 112.697 116.986 117.17 3.065.245 6.19.307 9.254.307 28.986 0 56.992-9.805 79.543-28.067 24.636-19.856 40.814-47.984 45.655-79.115a128.504 128.504 0 001.471-19.487c0-6.067-4.964-11.031-11.031-11.031s-11.03 4.964-11.03 11.031c0 5.392-.429 10.785-1.226 16.117-8.212 53.315-56.992 92.045-111.042 88.184-51.416-3.677-92.964-45.226-96.58-96.702-2.084-29.416 7.783-57.421 27.76-78.87 19.733-21.142 47.616-33.276 76.48-33.276 32.357 0 62.752 15.014 82.546 40.385L129.698 153.9z" fill="#07a23b" /></symbol><symbol viewBox="0 0 22 20" id="ui_telegram"><path d="M.389 9.585l5.069 1.892 1.962 6.31c.126.404.62.554.948.286l2.826-2.304a.843.843 0 011.027-.029l5.097 3.7c.35.256.848.063.936-.36l3.733-17.96a.598.598 0 00-.8-.678L.383 8.467a.598.598 0 00.006 1.118zm6.715.885l9.907-6.102c.178-.11.361.132.208.273l-8.176 7.6a1.695 1.695 0 00-.525 1.015l-.279 2.064c-.037.275-.424.303-.5.036l-1.071-3.764a.998.998 0 01.436-1.122z" /></symbol><symbol fill="none" viewBox="0 0 20 20" id="ui_telegram_round"><path d="M10 20c5.523 0 10-4.477 10-10S15.523 0 10 0 0 4.477 0 10s4.477 10 10 10z" fill="#29B6F6" /><path d="M14.975 5.5l-1.873 9.563s-.08.437-.623.437c-.287 0-.436-.137-.436-.137l-4.057-3.367-1.985-1-2.548-.678S3 10.188 3 9.813c0-.313.466-.462.466-.462l10.659-4.234c-.001 0 .325-.117.563-.117.146 0 .312.063.312.25 0 .125-.025.25-.025.25z" fill="#fff" /><path d="M9.5 13.253L7.787 14.94s-.074.058-.174.06a.247.247 0 01-.11-.021l.483-2.983L9.5 13.253z" fill="#B0BEC5" /><path d="M12.948 7.098a.25.25 0 00-.35-.047L6 11s1.053 2.946 1.213 3.456c.162.51.29.522.29.522l.482-2.982 4.917-4.548a.25.25 0 00.046-.35z" fill="#CFD8DC" /></symbol><symbol viewBox="0 0 9 9" id="ui_trash"><path fill-rule="evenodd" d="M6.8 7.65v.03c0 .246-.2.44-.44.44H2.65a.44.44 0 01-.44-.44l-.46-5.512h5.52L6.8 7.65zM3.802 1.289h1.394V.757H3.803v.532zm4.767 0c.241 0 .44.194.43.45 0 .245-.189.44-.44.44H8.15L7.669 7.71A1.315 1.315 0 016.339 9H2.65c-.734 0-1.32-.573-1.341-1.299L.849 2.158H.44a.44.44 0 01-.44-.44c0-.245.189-.44.44-.44h2.483V.634c0-.358.325-.634.744-.634h1.676c.42 0 .744.276.744.644v.645H8.57zM3.363 3.18h-.02a.446.446 0 00-.43.45l.136 2.935c0 .235.199.42.44.42h.02a.446.446 0 00.43-.45L3.803 3.59a.441.441 0 00-.44-.41zm2.284 0c-.23 0-.43.184-.44.419L5.06 6.545c0 .246.189.44.43.45h.02c.231 0 .43-.184.44-.419l.137-2.935a.389.389 0 00-.115-.317.388.388 0 00-.325-.143z" /></symbol><symbol viewBox="0 0 16 13" id="ui_twitter"><path fill-rule="evenodd" d="M14.115 2.055A3.29 3.29 0 0015.558.24a6.577 6.577 0 01-2.085.796A3.283 3.283 0 007.88 4.03 9.32 9.32 0 011.113.602 3.27 3.27 0 00.67 2.25a3.28 3.28 0 001.46 2.731 3.272 3.272 0 01-1.486-.41v.04a3.283 3.283 0 002.633 3.219 3.275 3.275 0 01-1.483.056 3.287 3.287 0 003.067 2.28A6.585 6.585 0 010 11.526 9.293 9.293 0 005.032 13c6.038 0 9.34-5 9.34-9.338 0-.142-.004-.284-.01-.424A6.682 6.682 0 0016 1.538a6.555 6.555 0 01-1.885.517z" /></symbol><symbol viewBox="0 0 14 11" id="ui_twitter_border"><path d="M4.736 10.987A7.578 7.578 0 01.846 9.9L0 9.393l.986.017c.032.001.083.004.164.004.376 0 1.571-.06 2.797-.752a3.02 3.02 0 01-1.996-1.92l-.156-.461.423.11a3 3 0 01-1.17-2.214l-.023-.428.392.171c.071.032.144.06.218.084-.557-.78-.894-1.985-.191-3.265l.194-.353.246.319a6.652 6.652 0 004.833 2.581 4.137 4.137 0 01-.02-.261C6.698 1.61 7.775.147 9.577.147c.756 0 1.484.3 2.02.829.719-.169 1.406-.588 1.413-.592L13.632 0l-.235.693a2.873 2.873 0 01-.505.904c.12-.039.238-.084.36-.137L14 1.094l-.314.676a2.887 2.887 0 01-1.23 1.312c.118 1.847-.642 3.907-2.008 5.42-1.014 1.123-2.82 2.466-5.664 2.484h-.048zM1.963 9.88c.88.38 1.823.578 2.773.578h.045c2.652-.017 4.333-1.266 5.276-2.31 1.314-1.457 2.027-3.448 1.86-5.197l-.018-.186.169-.078c.267-.125.507-.298.708-.51-.225.058-.465.1-.742.134l-.203.024-.157-.4.183-.14c.257-.152.482-.348.663-.578a4.743 4.743 0 01-.964.305l-.144.027-.1-.109A2.355 2.355 0 009.577.674c-1.471 0-2.35 1.195-2.35 2.35 0 .07.034.389.046.47l.12.34-.38-.007a7.173 7.173 0 01-5.275-2.47c-.527 1.385.358 2.492.781 2.823l.619.485-.786-.013a2.988 2.988 0 01-.72-.1c.207.926.94 1.67 1.89 1.873l1.04.224-1.024.288c-.179.05-.381.076-.602.076a3.19 3.19 0 01-.294-.014 2.488 2.488 0 002.028 1.254l.742.037-.598.44a6.303 6.303 0 01-2.85 1.151z" /></symbol><symbol viewBox="0 0 14 17" id="ui_upload"><path fill-rule="evenodd" d="M9.536 6.675v5.721H3.814V6.675H0L6.675 0l6.675 6.675H9.536zM0 16.211v-1.907h13.35v1.907H0z" clip-rule="evenodd" /></symbol><symbol viewBox="0 0 20 20" id="ui_upset"><path d="M10 11.667c-2.014 0-3.778.976-4.843 2.526l1.354.937c.767-1.117 2.003-1.797 3.489-1.797 1.486 0 2.722.68 3.49 1.797l1.353-.938c-1.065-1.549-2.829-2.525-4.843-2.525zm3.333-5a1.666 1.666 0 100 3.332 1.666 1.666 0 000-3.332zm-6.666 0a1.666 1.666 0 10-.001 3.332 1.666 1.666 0 000-3.332zm3.333-5A8.29 8.29 0 0118.333 10 8.29 8.29 0 0110 18.333 8.29 8.29 0 011.667 10 8.29 8.29 0 0110 1.667zM10 0C4.47 0 0 4.47 0 10s4.47 10 10 10 10-4.47 10-10S15.53 0 10 0z" /></symbol><symbol viewBox="0 0 14 14" id="ui_verified"><path fill="#29B2F1" d="M7 0a7 7 0 100 14A7 7 0 007 0zM5.915 10.23L2.695 7.01 3.93 5.77l1.984 1.985 4.207-4.208 1.237 1.237-5.444 5.445z" /></symbol><symbol fill="none" viewBox="0 0 14 14" id="ui_verified_tinkoff"><path fill-rule="evenodd" clip-rule="evenodd" d="M0 7a7 7 0 1114 0A7 7 0 010 7zm2.694.009l3.221 3.221 5.444-5.445-1.237-1.237-4.207 4.208L3.93 5.77 2.694 7.01z" fill="#FFDD2E" /></symbol><symbol fill="none" viewBox="0 0 300 100" id="ui_visa"><path d="M278.322 9.205h-18.629c-5.771 0-10.09 1.562-12.625 7.273l-35.806 80.368h25.317s4.139-10.806 5.076-13.178c2.766 0 27.36.037 30.876.037.722 3.07 2.934 13.141 2.934 13.141h22.371zM25.379 20.579C17.97 16.505 9.512 13.23.055 10.96l.307-1.824H39.24c5.236.193 9.469 1.85 10.928 7.403l8.453 40.296.001.005 2.515 12.153L84.74 9.19h25.538L72.322 96.719l-25.508.029zM248.593 65.73c1.994-5.053 9.606-24.515 9.606-24.515-.143.233 1.979-5.077 3.196-8.37l1.63 7.56s4.616 20.935 5.581 25.324zM119.909 8.446h24.109l-15.082 87.69h-24.1zm96.59 2.835l-3.269 19.007-2.16-1.012c-4.45-1.777-10.161-3.481-18.045-3.36-9.438 0-13.807 3.898-13.807 7.543-.054 4.108 5.107 6.815 13.534 10.872 13.909 6.259 20.332 13.85 20.242 23.827-.187 18.204-16.64 29.962-41.983 29.962-10.812-.11-21.225-2.23-26.856-4.679l3.384-19.632 3.107 1.394c7.918 3.274 13.044 4.604 22.694 4.604 6.929 0 14.364-2.686 14.424-8.564.045-3.839-3.11-6.58-12.495-10.879-9.145-4.195-21.259-11.224-21.125-23.826.143-17.046 16.924-28.94 40.747-28.94 9.347 0 16.831 1.906 21.608 3.682z" fill="#16257c" /></symbol><symbol viewBox="0 0 363 214" id="ui_vkontakte"><path fill-rule="evenodd" d="M301.411 105s47.808-67.437 52.56-89.6c1.582-7.915-1.9-12.35-10.134-12.35h-41.475c-9.499 0-12.981 4.117-15.83 10.133 0 0-22.425 47.78-49.709 77.888-8.758 9.733-13.212 12.662-18.046 12.662-3.9 0-5.699-3.25-5.699-12.03V14.767c0-10.764-1.267-13.931-10.13-13.931h-66.489c-5.066 0-8.233 2.945-8.233 6.964 0 10.137 15.515 12.427 15.515 39.893v56.674c0 11.398-.634 15.83-6.016 15.83-14.247 0-48.124-49.073-67.12-104.797C66.805 4.003 62.689.836 51.923.836H10.448C4.433.836 0 4.951 0 10.966c0 11.08 12.98 62.373 63.955 131.078 34.194 46.224 79.152 71.236 119.678 71.236 24.696 0 30.712-4.115 30.712-14.564v-35.46c0-8.865 3.482-12.664 8.548-12.664 5.698 0 15.757 1.83 39.26 25.012 27.861 26.596 29.761 37.676 44.96 37.676h46.54c4.75 0 9.181-2.216 9.181-10.13 0-10.45-13.615-29.129-34.51-51.293-8.549-11.397-22.48-23.744-26.913-29.442-6.33-6.65-4.432-10.451 0-17.415" /></symbol><symbol viewBox="0 0 25 25" id="ui_whatsapp"><path d="M24.67 12.018c0 6.636-5.422 12.016-12.112 12.016-2.123 0-4.117-.543-5.853-1.493L0 24.67l2.186-6.45a11.895 11.895 0 01-1.737-6.203C.449 5.38 5.87 0 12.559 0 19.25.002 24.67 5.381 24.67 12.018zM12.557 1.916c-5.614 0-10.18 4.532-10.18 10.104 0 2.21.72 4.257 1.939 5.922l-1.271 3.752 3.911-1.243a10.18 10.18 0 005.601 1.67c5.615 0 10.183-4.532 10.183-10.103.002-5.57-4.568-10.102-10.183-10.102zm6.117 12.87c-.075-.122-.273-.196-.57-.344-.294-.148-1.756-.86-2.027-.956-.274-.1-.472-.15-.67.146-.195.295-.764.958-.939 1.156-.173.197-.346.222-.643.077-.297-.15-1.254-.459-2.388-1.462-.883-.782-1.479-1.745-1.65-2.04-.175-.295-.019-.454.129-.6.132-.133.296-.345.445-.518.15-.17.198-.292.297-.49.097-.197.048-.368-.025-.517-.074-.148-.667-1.596-.915-2.185-.247-.59-.494-.492-.668-.492-.173 0-.37-.024-.569-.024-.198 0-.52.072-.79.367-.272.295-1.039 1.007-1.039 2.457s1.063 2.85 1.211 3.046c.15.195 2.055 3.268 5.073 4.447 3.019 1.179 3.019.785 3.562.735.546-.05 1.757-.712 2.003-1.399.248-.69.248-1.281.173-1.404z" /></symbol><symbol fill="none" viewBox="0 0 300 300" id="ui_yadzen"><path d="M150 300c82.843 0 150-67.157 150-150S232.843 0 150 0 0 67.157 0 150s67.157 150 150 150z" fill="red" /><path d="M203.571 125.742l-85.242 79.972-21.9-27.172 85.242-79.971z" fill="#cdcdcd" /><path d="M97.264 55.714L203.571 93.17v34.071L97.264 89.764zm-.835 121.328l106.307 37.479v34.05L96.429 211.114z" fill="#fff" /></symbol><symbol viewBox="0 0 68 48" id="ui_youtube"><path class="ytp-large-play-button-bg" d="M.66 37.62s.66 4.7 2.7 6.77c2.58 2.71 5.98 2.63 7.49 2.91 5.43.52 23.1.68 23.12.68 0 0 14.29-.02 23.81-.71 1.32-.15 4.22-.17 6.81-2.89 2.03-2.07 2.7-6.77 2.7-6.77s.67-5.52.67-11.04V21.4c0-5.52-.67-11.04-.67-11.04s-.66-4.7-2.7-6.77C62.03.86 59.13.84 57.8.69 48.28 0 34 0 34 0c-.03 0-14.31 0-23.82.69-1.33.15-4.23.17-6.82 2.89-2.04 2.07-2.7 6.77-2.7 6.77S.11 14.85 0 19.8v8.36c.1 4.94.66 9.45.66 9.45z" /><path d="M26.96 13.67l18.37 9.62-18.37 9.55V13.67z" fill="#fff" /><path d="M45.02 23.46l.3-.18-18.36-9.61 16.36 10.67 1.7-.88z" fill="#ccc" /></symbol><symbol fill="none" viewBox="0 0 27 19" id="updates_arrows"><path clip-rule="evenodd" d="M6.985 17.862l5.963-5.764-5.963 5.764z" stroke="#000" stroke-width="1.6" stroke-linecap="round" stroke-linejoin="round" /><path d="M7.035 1.949V17.6m-.05.262l-5.863-5.753" stroke="#000" stroke-width="1.6" stroke-linecap="round" stroke-linejoin="round" /><path clip-rule="evenodd" d="M19.985 1.036L25.948 6.8l-5.963-5.764z" stroke="#000" stroke-width="1.6" stroke-linecap="round" stroke-linejoin="round" /><path d="M20.035 16.949V1.297m-.05-.261l-5.863 5.752" stroke="#000" stroke-width="1.6" stroke-linecap="round" stroke-linejoin="round" /></symbol><symbol viewBox="0 886 20 20" id="updown"><path d="M.227 900.074c0-.17.065-.32.196-.45l9.126-9.127a.62.62 0 01.45-.196c.17 0 .32.066.45.197l9.127 9.126a.615.615 0 010 .9l-.98.98a.618.618 0 01-.9 0L10 893.806l-7.697 7.697a.618.618 0 01-.9 0l-.98-.98a.62.62 0 01-.196-.45z" /></symbol><symbol viewBox="0 0 14 14" id="vote_rocket"><path d="M13.7 0c.1 0 .1 0 .2.1.1 0 .1.1.1.2 0 1.4-.2 2.7-.6 3.7-.4 1-1.2 2.1-2.2 3.1-.5.5-1 1-1.7 1.5l-.2 3.2c0 .1-.1.2-.1.2l-3.3 2h-.1c-.1 0-.1 0-.2-.1l-.6-.5c-.1-.1-.1-.2-.1-.3l.7-2.4-2.3-2.4L.9 9H.8c0 .1-.1 0-.2 0l-.5-.6C0 8.3 0 8.2 0 8.1l2-3.3c0-.1.1-.1.2-.1l3.2-.2c.6-.7 1.1-1.2 1.5-1.7C8 1.8 9 1 10 .6c1-.4 2.2-.6 3.7-.6zm-2.4 3.6c.2 0 .4-.1.6-.2.1-.2.2-.4.2-.7 0-.2-.1-.4-.2-.6-.2-.2-.4-.2-.6-.2-.2 0-.4.1-.6.2-.2.2-.2.4-.2.6 0 .2.1.4.2.6.1.2.3.3.6.3z" /></symbol><symbol viewBox="0 0 16 8" id="vote_triangle"><path stroke="#f0f0f0" d="M8 0l8 8H0z" /></symbol><symbol viewBox="0 0 14 14" id="writing-distribution"><path fill-rule="evenodd" clip-rule="evenodd" d="M4.2 7a1.4 1.4 0 10-2.8 0 1.4 1.4 0 002.8 0zm8.4 4.2a1.4 1.4 0 10-2.8 0 1.4 1.4 0 002.8 0zm0-8.4a1.4 1.4 0 10-2.8 0 1.4 1.4 0 002.8 0zM11.2 0a2.8 2.8 0 11-2.109 4.638L5.537 6.413a2.811 2.811 0 010 1.172l3.554 1.777A2.8 2.8 0 1111.2 14a2.8 2.8 0 01-2.737-3.386L4.909 8.837a2.8 2.8 0 110-3.675l3.554-1.776A2.8 2.8 0 0111.2 0z" /></symbol><symbol viewBox="0 0 488.4 488.4" id="writing-fullscreen"><path d="M441.1 407.8L338.8 305.5l-33.3 33.3 102.3 102.3h-79.5v47.3h160.1V328.3h-47.3zM338.8 183L441.1 80.6v79.5h47.3V0H328.3v47.3h79.5L305.5 149.6zM149.6 305.5L47.3 407.8v-79.5H0v160.1h160.1v-47.3H80.6L183 338.8zm10.5-258.2V0H0v160.1h47.3V80.6L149.6 183l33.4-33.4L80.6 47.3z" /></symbol><symbol viewBox="0 0 15 14" id="writing-history"><path fill-rule="evenodd" clip-rule="evenodd" d="M15 6.783A6.79 6.79 0 008.217 0a6.797 6.797 0 00-6.533 4.951l-.447-.659a.678.678 0 00-1.121.76L1.55 7.163a.68.68 0 00.497.294l.063.003c.135 0 .267-.04.38-.116l2.112-1.434a.677.677 0 00-.76-1.123l-.87.593a5.441 5.441 0 015.245-4.027 5.436 5.436 0 015.429 5.43 5.436 5.436 0 01-5.43 5.428 5.426 5.426 0 01-4.502-2.394.677.677 0 10-1.121.759 6.78 6.78 0 005.624 2.99A6.79 6.79 0 0015 6.783zM10.64 8.65l-1.746-2.11V3.848a.677.677 0 00-1.354 0v2.936c0 .158.055.31.154.43l1.904 2.3a.677.677 0 101.042-.864z" /></symbol><symbol viewBox="0 0 17 17" id="writing-link-protected"><path fill-rule="evenodd" clip-rule="evenodd" d="M16.227 2.318v-.386C16.227.85 15.377 0 14.296 0c-1.082 0-1.932.85-1.932 1.932v.386c-.464 0-.773.31-.773.773v3.09c0 .464.309.774.773.774h3.863c.464 0 .773-.31.773-.773V3.09c0-.464-.31-.773-.773-.773zm-.618 0h-2.627v-.386c0-.696.618-1.314 1.314-1.314.695 0 1.313.618 1.313 1.314v.386zM13.832 8.5c0 .232.077.54.077.773a6.11 6.11 0 01-1.623 4.172c-.231-.618-.772-1.081-1.468-1.081h-.772v-2.319c0-.463-.31-.772-.773-.772H4.636V7.727h1.546c.463 0 .773-.309.773-.772V5.409H8.5a1.55 1.55 0 001.546-1.545V1.932a7.672 7.672 0 00-2.319-.387C3.477 1.545 0 5.023 0 9.273S3.477 17 7.727 17s7.727-3.477 7.727-7.727c0-.232 0-.541-.077-.773h-1.545zm-6.877 6.877c-3.014-.386-5.41-3.013-5.41-6.104 0-.464.078-.928.155-1.391l3.71 3.709v.773c0 .85.695 1.545 1.545 1.545v1.468z" /></symbol><symbol viewBox="0 0 14 14" id="writing-save"><path fill-rule="evenodd" clip-rule="evenodd" d="M14 4.667v8.458c0 .243-.085.45-.255.62a.844.844 0 01-.62.255H.875a.844.844 0 01-.62-.255.844.844 0 01-.255-.62V.875c0-.243.085-.45.255-.62A.844.844 0 01.875 0h8.458c.243 0 .51.06.802.182.292.122.523.268.693.438l2.552 2.552c.17.17.316.4.438.693.121.291.182.559.182.802zm-5.833-.292V1.458a.28.28 0 00-.087-.205.28.28 0 00-.205-.086h-1.75a.28.28 0 00-.205.086.28.28 0 00-.087.205v2.917a.28.28 0 00.087.205.28.28 0 00.205.087h1.75a.28.28 0 00.205-.087.28.28 0 00.087-.205zm3.5 8.458h1.166V4.667c0-.085-.03-.202-.09-.351A.98.98 0 0012.56 4L9.999 1.44a.984.984 0 00-.31-.183.981.981 0 00-.356-.091v3.791c0 .243-.085.45-.255.62a.844.844 0 01-.62.255h-5.25a.844.844 0 01-.62-.255.844.844 0 01-.255-.62v-3.79H1.167v11.666h1.166V9.042c0-.243.085-.45.256-.62a.844.844 0 01.62-.255h7.583c.243 0 .45.085.62.255.17.17.255.377.255.62v3.791zm-8.167 0h7v-3.5h-7v3.5z" /></symbol><symbol viewBox="0 0 14 15" id="writing-trash"><path fill-rule="evenodd" d="M10.577 11.913v.048c0 .382-.31.685-.685.685H4.123a.684.684 0 01-.684-.685l-.717-8.584h8.588l-.733 8.536zM5.916 2.007h2.167v-.828H5.916v.828zm7.415 0c.375 0 .685.302.668.7a.674.674 0 01-.684.685h-.636l-.75 8.617c-.016 1.115-.928 2.007-2.07 2.007H4.124a2.074 2.074 0 01-2.086-2.023L1.32 3.361H.684A.684.684 0 010 2.676c0-.383.293-.685.684-.685h3.863V.987C4.547.43 5.052 0 5.704 0h2.608c.652 0 1.157.43 1.157 1.003v1.004h3.862zm-8.1 2.946H5.2a.695.695 0 00-.668.701l.212 4.571c0 .366.31.653.684.653h.033a.695.695 0 00.668-.7L5.916 5.59a.687.687 0 00-.685-.637zm2.869.653l-.228 4.587c0 .382.293.685.668.701h.032a.69.69 0 00.685-.653l.212-4.571a.606.606 0 00-.18-.494c-.13-.159-.293-.223-.505-.223a.69.69 0 00-.684.653z" /></symbol><symbol fill="none" viewBox="0 0 18 18" id="writing-typograph"><path d="M17.47 12.43a3.99 3.99 0 01-4-3.97.53.53 0 00-1.05 0 3.99 3.99 0 01-4 3.97.53.53 0 100 1.06 4 4 0 014 3.98.53.53 0 101.05 0 4 4 0 014-3.98.53.53 0 000-1.06zm-4.53 2.8a5.08 5.08 0 00-2.27-2.27 5.06 5.06 0 002.27-2.25 5.03 5.03 0 002.28 2.25 5.08 5.08 0 00-2.28 2.27zM7.22 8.31a2.81 2.81 0 01-2.82-2.8.53.53 0 00-1.06 0c0 1.55-1.26 2.8-2.81 2.8a.53.53 0 000 1.06 2.81 2.81 0 012.81 2.8.53.53 0 001.06 0c0-1.55 1.26-2.8 2.82-2.8a.53.53 0 100-1.06zm-3.35 1.92a3.9 3.9 0 00-1.39-1.4 3.89 3.89 0 001.4-1.38c.33.57.8 1.05 1.38 1.39a3.9 3.9 0 00-1.39 1.39zm4.2-6.59c1.15 0 2.07.93 2.07 2.06a.53.53 0 001.06 0c0-1.14.93-2.06 2.07-2.06a.53.53 0 000-1.06A2.07 2.07 0 0111.2.53a.53.53 0 10-1.06 0c0 1.13-.92 2.06-2.07 2.06a.53.53 0 100 1.05zm2.6-1.38c.23.33.52.62.86.85-.34.23-.63.52-.86.86a3.14 3.14 0 00-.86-.85c.34-.23.64-.52.86-.86z" fill="#000" /></symbol></defs></svg>